<svg xmlns="http://www.w3.org/2000/svg" viewBox="0 0 345.53 356.59"><defs><style>.a{fill:#05516b;}.b{fill:#d7cab3;}.c{fill:#fafcf7;}.d{fill:#fe6c60;}.e{fill:#efd3b7;}.f{fill:#efd4b8;}.g{fill:#c49f84;}.h{fill:#018fab;}.i{fill:#c49f85;}.j{fill:#0da7c1;}.k{fill:#ce2e10;}.l{fill:#08acc7;}.m{fill:#06809e;}.n{fill:#fafcf9;}.o{fill:#f8fbf8;}.p{fill:#0daac4;}.q{fill:#0e8ba7;}.r{fill:#087f9c;}.s{fill:#088ba9;}.t{fill:#f3f6f2;}.u{fill:#096179;}.v{fill:#2b8690;}.w{fill:#2daec1;}.x{fill:#453d4b;}.y{fill:#e8c5c6;}.z{fill:#663b37;}.aa{fill:#0190ad;}.ab{fill:#07819f;}.ac{fill:#068aa8;}.ad{fill:#15839f;}.ae{fill:#2f8e9b;}.af{fill:#07aac3;}.ag{fill:#0ba8c4;}.ah{fill:#2f9eae;}.ai{fill:#fbf9f3;}.aj{fill:#e37a68;}.ak{fill:#115466;}.al{fill:#135466;}.am{fill:#12566a;}.an{fill:#154c5d;}.ao{fill:#105566;}.ap{fill:#115569;}.aq{fill:#165160;}.ar{fill:#115669;}.as{fill:#0f5667;}.at{fill:#15505e;}.au{fill:#105565;}.av{fill:#115468;}.aw{fill:#125365;}.ax{fill:#155365;}.ay{fill:#155362;}.az{fill:#164f5e;}.ba{fill:#125463;}.bb{fill:#115568;}.bc{fill:#165162;}.bd{fill:#125164;}.be{fill:#145060;}.bf{fill:#145062;}.bg{fill:#155264;}.bh{fill:#174f5e;}.bi{fill:#155260;}.bj{fill:#077894;}.bk{fill:#135165;}.bl{fill:#115366;}.bm{fill:#165161;}.bn{fill:#135465;}.bo{fill:#125363;}.bp{fill:#134f60;}.bq{fill:#115063;}</style></defs><title>AIDBAND</title><path class="a" d="M367.32,201.65c-.75,40.14-13,81.64-43.42,116.59C300,345.72,270,363.27,234.68,372c-37.83,9.31-74.34,5.24-109.79-10.17a102.68,102.68,0,0,0-21.26-6.73C87.93,352,75.8,342.66,65.48,331a70.74,70.74,0,0,1-16.75-35.16c-.79-4.48-3.75-8.16-5.9-12.06C24.55,250.69,19.24,215.2,22.85,178c3.67-38,18-71.58,43.11-100.09,24.12-27.39,54.88-44.25,90.31-52.84,39.17-9.5,76.61-4.49,112.65,12.87,4,1.93,8.18,1.17,12.24,1.81,30.16,4.74,54,28.06,58.65,58.17.92,5.94,4.6,10.28,7.15,15.22C359.63,137.75,367.35,168.51,367.32,201.65Z" transform="translate(-21.78 -20.33)"/><path class="b" d="M264,210.09a112.54,112.54,0,0,1,13.8-13.9c1.75,1.28,1.5,3.21,1.58,5,.47,10.43,2,20.83.11,31.29-.5,2.75-.06,5.65-.12,8.47-.59,5.28-1.63,10.5-2.44,15.76-.54,3.52.66,5.1,4,6.15,7.6,2.41,15.27,4.69,22.47,8.22,3.91,1.85,8.1,3.12,11.79,5.39s5.57,1.3,7.36-2.41c6.33-13.1,11.35-26.6,14-40.95,2.1-11.3,4.19-22.56,4-34.14-.06-4.06-1.35-5.62-5.49-5.55-10.81.19-21.63-.11-32.45,0-6.4-.26-12.83.51-19.21-.46a2.83,2.83,0,0,1-1.32-1.17l13.81-13.06c1.91-1.34,4.11-1.15,6.26-1.15,10,0,19.95,0,29.92-.17,6.1-.12,6.93-1.1,5.72-7.22-1.44-7.34-3-14.65-5.08-21.84-.6-2.06-1.49-4.11-.8-6.33,3.73-5.23,5.41-11.31,7-18.32,4,6,6.06,11.9,8,17.76,16,46.86,11.55,92.39-9.41,136.68-9,19.05-22,35.15-38,48.81-34.27,29.16-74.08,41.69-118.68,38.84-15.77-1-31.22-4.55-45.83-12.23,5.07-2.66,10-4.72,13.85-8.54,2.86-1.16,5.4.59,8.46.84-1.48-2.06-4.21-3.73-2.35-6.74,3.45-1.83,4.88-6.19,9-7.15,3,.27,4.44,2.65,6.24,4.56,4.62,4.89,9.12,9.94,15.33,13,1.35-2,.89-3.84.89-5.6,0-9.79,0-19.58,0-29.36,0-2.3-.3-4.69,1.35-6.67,1.82-4.35,6.34-6.16,9.09-9.65,1.23-1.56,2.61-3,3.93-4.49a1.31,1.31,0,0,1,1.47.33c1.34,1.94,1,4.16,1,6.29.06,15-.05,29.93.1,44.9,0,1.3-.52,3.07.69,3.74,1.55.88,2.65-.85,3.79-1.69,8.9-6.59,16-14.93,22.92-23.47,9.42-12.55,17.37-25.91,22.16-41,.2-.45.46-.88.65-1.34,3.1-7.3,3.1-7.3-2.8-12-3.53-6.88-1.62-11.35,5.85-12.71,3-.55,3.75-2.13,4.18-4.62a178.81,178.81,0,0,0,2.5-36.82C263.35,213.61,262.81,211.74,264,210.09Z" transform="translate(-21.78 -20.33)"/><path class="c" d="M235.07,57.06A53.58,53.58,0,0,1,226.9,67.2c-2.41.18-3.47-1.69-4.73-3.17a140.93,140.93,0,0,0-13.35-13.42c-1.2-1.09-2.58-2.81-4.21-2.19-1.82.7-1.11,2.9-1.11,4.47-.06,11,0,21.94,0,32.91,0,2.52,0,5-1.38,7.25-4.59,4.53-9.24,9-13.18,14.15-3.25-1.22-2.27-4.12-2.29-6.39-.12-15.29-.06-30.59-.06-45.89,0-1.16.05-2.33,0-3.49-.25-3.8-.91-4.13-4.12-1.86-7.43,5.24-13,12.26-18.57,19.34C155,80.18,149.53,93.18,144.23,106.3c-1.22,3-1.46,5.52,1.76,7.78a7.39,7.39,0,0,1,2.73,8.9,7.16,7.16,0,0,1-7.69,5.14c-3.77-.2-4.7,2-5.53,5-1.53,5.58-1.38,11.58-4.24,16.82-11.26,10.51-16.18,23.55-15.2,38.81.15,2.35-1,3.67-2.27,5.19-19-.69-38-.22-57-.33-8.09,0-8.55.25-8.16,8.5.72,15,2.58,29.88,7.16,44.28.76,2.41,1.51,4.79.34,7.28-3.42,5-5.21,10.66-7.12,16.57-24.71-46.05-25.17-130.13,26-185.93,51.89-56.55,130.08-63.78,178-40.77-4.34,3-9,5.32-12.2,9.4-2.58,1.79-5-.29-7.56-.41C233.73,54.16,235.4,55.23,235.07,57.06Z" transform="translate(-21.78 -20.33)"/><path class="d" d="M162.07,152.11c11.37.06,19.49,6.31,26.69,14.16,3.48,3.8,5.3,4,8.77.17s7.17-7.83,12.11-10.07c9.5-4.31,19-5.23,28.5.14,3.12,1.77,6.78,2.65,9,5.84,2.6,7.34-1.1,13.05-5.45,18.07-4.54,5.27-9.15,10.52-14.07,15.46-9.62,9.65-19.18,19.36-28.94,28.85a13.07,13.07,0,0,0-4.32,10.58c.24,6.81.14,13.62,0,20.43,0,2,.58,4.46-2.15,5.5-17.85-17.92-36.8-34.73-54.14-53.17-7.4-9.69-9.86-20.16-5.09-31.8,2.3-4,4.7-7.94,6-12.41,3.24-6,8.54-9.19,15-10.81C156.65,152.67,159.4,152.74,162.07,152.11Z" transform="translate(-21.78 -20.33)"/><path class="e" d="M289,53.32a36.94,36.94,0,0,1,16.28,8.52c0,5.39-3.06,9.63-5.43,14.07a56.47,56.47,0,0,0-4.39,9.39c-.41,1.4-1,2.74-1.52,4.11-1.31,3.92-1.94,8.19-5.54,10.94a2.34,2.34,0,0,1-.92.31c-8.2.39-9.19,2-6,9.44-.72,3.81-2.23,7-6.28,8.31a7,7,0,0,1-2.25-1c-2.49-1.41-4.85-1.41-6.59,1.08s-.5,4.39,1.36,6.13a9.74,9.74,0,0,1,1,1.12c.87,4.73-1.64,8.38-6.66,9.69a9,9,0,0,1-1.9-1.53c-1.95-1.69-4.17-2.23-6.24-.51s-1.64,3.77-.55,5.83a9.13,9.13,0,0,1,1.45,3.11c-.59,3.19-1.06,6.52-5.67,5.7-13.17-7.89-27-9.32-41.35-3.82a34.13,34.13,0,0,0-12.29,8.22c-1.75,1.8-3.08,2.19-4.66-.08-2.75-3.92-6.91-6.07-10.85-8.48-1.4-2.45.65-3.71,1.91-5.06,14.1-15.09,28.47-29.92,42.74-44.86,8.73-9.15,17.77-18,26.24-27.41,10-11.1,21.82-15.94,36.61-13.09A3.37,3.37,0,0,0,289,53.32Z" transform="translate(-21.78 -20.33)"/><path class="f" d="M123,209.08c11.27,13.42,24.51,24.87,36.86,37.21,1.15,1.16,2.16,2.46,3.24,3.7-2,3.9-5.48,6.56-8.48,9.58a102.21,102.21,0,0,0-8.88,10,12.06,12.06,0,0,0-3.89,6.82c-1.78,3.46-4.66,5.9-7.66,8.22-2.78.84-5.57,1.66-6.39,5a16.59,16.59,0,0,1-8.38,10.52c-4.5.25-5.94,3.45-6.86,7.15-2.28,3.91-5.1,7.1-10,7.6-2.16.72-3.25,2.53-4.36,4.32-6.52,5.39-19.44,5.05-26.72-.72-.9-.72-1.69-1.58-2.61-2.28A14.15,14.15,0,0,1,65.18,310c5.42-6.34,3.21-13.14,2.1-20.38a42.34,42.34,0,0,1,11.43-36.39c13.11-13.88,26.54-27.49,39.88-41.17C119.84,210.77,121,209.25,123,209.08Z" transform="translate(-21.78 -20.33)"/><path class="g" d="M68.93,316.17c5,1.89,9.4,5.43,15.1,5.35,4.85-.07,9.84.36,13.75-3.47,1.21.54,1.33,1.78,1.75,2.81a3.58,3.58,0,0,0,4.25,2.48,4.14,4.14,0,0,0,3.56-3.59,3.57,3.57,0,0,0-2.51-4.23c-1-.42-2.27-.53-2.81-1.75,4.66-.27,7-4.07,10-6.72,1.31-.53,2.1.61,3.11,1,2.38.9,4.6.8,6.17-1.39s.54-4-1.31-5.51c-.63-.52-1.25-1.08-1.07-2,3.68-2.46,6.62-5.49,7.78-9.92,1.27.47,1.4,1.76,1.93,2.76,1.24,2.35,3.14,2.95,5.42,1.76,2.55-1.34,2.81-3.43,1.61-5.94-.6-1.25-2.42-2-1.67-3.83l7-7.89c1.52-.56,1.93.89,2.75,1.56,2.15,1.78,4.22,1.92,6-.4s.83-5.22-1.8-6.64c-1-.54-2.28-.55-2.95-1.66,5-7.31,11.38-13.29,18.13-18.92q10.13,9.51,20.25,19c6.23,5.89,14.68,5.82,21-.21.85-.8,1.75-1.53,2.63-2.3a2.68,2.68,0,0,1,2.42,1.34,3.07,3.07,0,0,1,.12,2.11c-2.05,2.81-4,5.71-7.59,6.84-9.4,7.47-17.21,16.56-25.72,24.95-10.52,10.37-21.42,20.4-31.38,31.29-16.11,17.61-42.7,15.62-59.07,1.82C79.39,329.48,72.49,324.26,68.93,316.17Z" transform="translate(-21.78 -20.33)"/><path class="h" d="M209.16,268.11,207,266.53c10.23-10.36,20.57-20.62,30.67-31.1q12.69-13.19,26.34-25.34c1.1,2.88.87,5.9,1,8.89a190.39,190.39,0,0,1-3,36.76c-.26,1.53-.44,2.82-2.6,2.89-9.18.28-11,3.18-7.18,11,7.83,3.48,2.2,8.85,1.89,13.47-4.48,15.16-12.1,28.64-22,40.9-4,1.43-6.39,4.14-8.33,8A16.62,16.62,0,0,1,205,340.22c-2.55-.68-1.92-2.82-1.93-4.51-.07-12,0-23.95-.06-35.92,0-1.94.54-4-1-5.73l-1-.28a5.82,5.82,0,0,1,.07-.73c1.67-4.31,5.82-6.48,8.51-9.9,2-2,3.89-4.08,6-5.94,3.66-3.27,3.21-7.79,3.84-11.95.26-1.69-.93-1.91-2.25-1.12s-2.38,1.78-3.58,2.66S211.08,269.25,209.16,268.11Z" transform="translate(-21.78 -20.33)"/><path class="i" d="M275.33,118c2.49-2.1,3.91-5,5.59-7.66a1.27,1.27,0,0,1,1.08-.81c6.6-1.16,6.9-1.59,5.74-8.22A1.75,1.75,0,0,1,288,100a43,43,0,0,0,4.75-10.88c1.22.56,1.3,1.83,1.8,2.85a3.74,3.74,0,0,0,4.91,2.19,4,4,0,0,0,2.89-4.62,4.2,4.2,0,0,0-3.86-3.9c-1.44-.21-3,.6-4.34-.39,2.69-8.26,7.9-15.33,11.07-23.37,13.92,9.89,21.94,23.34,23.7,40.27a69.25,69.25,0,0,1-1.45,21.29c-2,9.77-9.27,15.6-15.62,21.95-12.1,12.09-23.65,24.74-36.53,36-2.29,2-3.69,5-7.4,6.92,1-17.31-6.39-30-18.82-40.28,3.39-.57,4.2-3.25,4.92-6a17.49,17.49,0,0,0,8.16-7c2.61-2.5,6.62-4.08,5.85-8.83C271.63,124.47,274.26,122,275.33,118Z" transform="translate(-21.78 -20.33)"/><path class="j" d="M131.26,149.94c.08-7.37,2.43-14.32,4-21.42.42-1.93,1.4-2.67,3.58-2,3.92,1.11,7.54.49,8.79-4,1.13-4-.17-7.26-4.49-8.63-3.11-1-1.84-3-1.22-4.83,3.66-10.31,7.48-20.57,13.38-29.88,7.38-11.63,15.34-22.77,26.59-31.08,1.67-1.23,3.53-3.54,5.52-2.57,1.77.86.76,3.62.77,5.51.08,16.79,0,33.59.11,50.38,0,1.94-.56,4,.66,5.82-9.27,9.72-18.51,19.47-27.86,29.12a13.14,13.14,0,0,1-8.22,4.08C144.74,141.35,138,145.77,131.26,149.94Z" transform="translate(-21.78 -20.33)"/><path class="k" d="M192.19,261.24c1.82-6.36,1.2-12.94.65-19.27-.85-9.82,2.4-16.71,9.72-23.41,12.74-11.67,24.74-24.2,36.41-37,5.07-5.56,8.09-11.68,8.13-19.21,4.7,2.53,4.59,7.82,6.76,11.8,2.08,1.5.31,4.32,2,5.95L256,192c-1.79,2.33.17,5.7-2.19,7.87-3.06,8.6-10.63,13.48-16.55,19.63C224.31,232.9,211,246,197.69,259,196.35,260.35,195.17,263.44,192.19,261.24Z" transform="translate(-21.78 -20.33)"/><path class="l" d="M56.16,253.67c-3.07-10.87-6.24-21.71-7.59-33a191.83,191.83,0,0,1-1.47-24.9c0-2.79,1.08-3.74,3.86-3.73q29.24.13,58.45,0a6.7,6.7,0,0,1,4.38,1.86C94.39,213.66,74.75,233.16,56.16,253.67Z" transform="translate(-21.78 -20.33)"/><path class="m" d="M278,242c-.18-6.26.67-12.48.75-18.71.12-9-.56-18.09-.9-27.14.46-2.42,2.77-3,4.29-4.38l0,.06c6.91,1.35,13.87.44,20.81.49,11.8-.09,23.6-.09,35.4-.35,3.36-.07,3.63,1.56,3.71,4.25.39,13.22-1.71,26.14-4.27,39-2.84,14.25-8.08,27.61-14.38,40.64-1.84,3.8-3.53,5.22-7.66,2.51-4-2.6-8.56-4.27-12.87-6.35,3.72-1.68,5.41-4.93,7-8.48a154.79,154.79,0,0,0,13.52-58.87c.3-8.18-1-9.15-9.14-9.17-7.81,0-15.63,0-23.44,0-8.45.07-9.19.81-9.21,9.07,0,10.3.12,20.61-.1,30.91C281.42,238.1,282.25,241.58,278,242Z" transform="translate(-21.78 -20.33)"/><path class="n" d="M123,209.08c-14.17,14.65-28.56,29.09-42.43,44-11,11.8-15.52,26.1-10.85,41.72,2.1,7.06.31,11.13-4.57,15.18-7.63-15.37-7.82-30.89-1.09-46.62,1.81-4.23,4.73-7.58,7.86-10.8q21.64-22.38,43.33-44.72C119.94,203.06,120,203.1,123,209.08Z" transform="translate(-21.78 -20.33)"/><path class="o" d="M289,53.32c-3.21,1.36-6.59.61-9.86.55a31.43,31.43,0,0,0-24.71,11c-7.53,8.43-15.88,16-23.43,24.42-11.68,13-24.5,25-36.31,37.84-5,5.45-11,10.14-14.67,16.74-2.76.12-4.76-2.24-7.87-1.89.92-3.45,3.79-4.54,5.61-6.46q29.33-30.88,58.74-61.68c2.63-2.76,5-5.77,7.4-8.75C255.75,50.33,273.89,48.18,289,53.32Z" transform="translate(-21.78 -20.33)"/><path class="p" d="M202.09,93.05c-.08-15-.11-29.95-.28-44.91,0-3.86,1.77-3.38,3.87-1.82a100.6,100.6,0,0,1,17.59,16.79c1.17,1.4,2.42,2.73,3.63,4.09Z" transform="translate(-21.78 -20.33)"/><path class="q" d="M187.91,307.92q.12,21.12.26,42.25c0,3.23-1.44,2.79-3.28,1.42-5.83-4.37-11.68-8.77-16.11-14.62-1.43-1.88-3.49-3-4.72-5-.07-1.71,1.14-2.7,2.19-3.75q9.33-9.35,18.68-18.68A4.57,4.57,0,0,1,187.91,307.92Z" transform="translate(-21.78 -20.33)"/><path class="r" d="M332,142c4.48,10.62,6.49,21.86,8.22,33.17.35,2.28,0,3.94-2.89,3.9-13.78-.2-27.57.48-41.35-.36A3.16,3.16,0,0,1,298,176c6.77,1,13.58.37,20.36.53,3.21.07,4.48-.9,3.56-4.45A48.36,48.36,0,0,0,316,158,156.15,156.15,0,0,1,332,142Z" transform="translate(-21.78 -20.33)"/><path class="s" d="M316,158c4.34,1.16,4.4,5.35,5.85,8.48.81,1.75.82,3.85,1.39,5.74C325,178,325,178,318.76,178c-5.62,0-11.25,0-16.87,0-1.57,0-3.48.48-3.88-2C303.16,169.17,310.56,164.56,316,158Z" transform="translate(-21.78 -20.33)"/><path class="t" d="M153.92,153.92c-5.62,2-10.53,5-13.87,10.16a101.23,101.23,0,0,0-6,11.93c-4.14,11.36-1.38,21.87,4,32.06-10.61-9.12-12.27-20.79-9-33.51,3-11.87,10.92-19,22.85-21.66C152.89,152.56,154,152,153.92,153.92Z" transform="translate(-21.78 -20.33)"/><path class="u" d="M210,284a52.38,52.38,0,0,1-9,9.05c-5-2.9-5.59-6.9-1.75-11.26,1.28-1.45,3.19-2.57,2.72-5l6.9-6.81c3.86-.23,4.2,2.39,3.8,5.11C212.22,278.17,211,281.06,210,284Z" transform="translate(-21.78 -20.33)"/><path class="v" d="M155.05,339.13c-.31,4.14,4.27,5.19,5.64,9L148.94,345C150.31,342.38,153.47,341.56,155.05,339.13Z" transform="translate(-21.78 -20.33)"/><path class="w" d="M235.07,57.06c-1.72-2.06-4-3.7-5-6.91l10.8,2.79C238.93,54.33,237.72,56.7,235.07,57.06Z" transform="translate(-21.78 -20.33)"/><path class="x" d="M253.79,199.84c.43-2.71-.18-5.7,2.19-7.87C255.35,194.62,258.2,198.24,253.79,199.84Z" transform="translate(-21.78 -20.33)"/><path class="y" d="M153.92,153.92l-2.06-1c3.3-1.65,6.77-1,10.21-.79C159.53,153.5,156.69,153.59,153.92,153.92Z" transform="translate(-21.78 -20.33)"/><path class="z" d="M255.89,180.1c-3.08-1.16-1.47-3.93-2-5.95C257.64,175.07,255.47,178,255.89,180.1Z" transform="translate(-21.78 -20.33)"/><path class="aa" d="M278,242c2.52-1.24,2-3.58,2-5.69,0-11.83.25-23.67-.1-35.48-.14-4.66,1.91-6.66,5.9-6.73,11.49-.22,23-.19,34.48-.07,3.76,0,4.57,3.41,4.59,6.06a148.38,148.38,0,0,1-5.76,42.66c-2.62,9.1-6.53,17.71-9.83,26.54-1.51,4-4.27,2-6.45,2.76-8.42-3-16.65-6.61-25.35-8.8-2-.5-2.76-1.52-2.4-3.56C276.08,253.84,277,247.94,278,242Z" transform="translate(-21.78 -20.33)"/><path class="ab" d="M296,284.19c4.7,1.95,9.38,3.95,14.11,5.84,2.83,1.13,3.53,2.42,1.33,5.05-19.31,23-42.42,40.6-71.15,50.23a47.42,47.42,0,0,1-9.91,2c7.26-7.19,12.59-15.88,19.62-23.16,6.62-.87,11.3-5.45,16.27-9.1,5.21-3.81,10.17-8.06,15.14-12.24C287.57,297.64,292.87,291.76,296,284.19Z" transform="translate(-21.78 -20.33)"/><path class="ac" d="M296,284.19c.7,2.06.09,3.69-1.09,5.53-5.85,9.13-14.52,15.3-22.55,22.21-4.66,4-9.86,7.2-14.78,10.79-2.06,1.5-4.55,3.66-7.58,1.45,6.35-13.47,14.11-26.27,18.77-40.56,2.75-8.38,3.06-8.34,11.38-5.38C285.48,280.12,290.73,282.2,296,284.19Z" transform="translate(-21.78 -20.33)"/><path class="ad" d="M202,294.06c3.1.59,2,3.09,2,4.83.09,13.3,0,26.59,0,40.31,3.87-.65,7.28-1.64,11.19-.41,1.45.45,4.54-4,6.76-6.39a6.28,6.28,0,0,0,1.66-3c.87-5,4.23-5.81,8.46-5.36A114,114,0,0,1,202,353.5Z" transform="translate(-21.78 -20.33)"/><path class="ae" d="M254.06,283.12c0-1-.38-2.08,0-2.89,1.72-4,2.06-7.63-1.86-10.58C258.83,272.2,259.14,274.44,254.06,283.12Z" transform="translate(-21.78 -20.33)"/><path class="aa" d="M302.89,192.36c-7,.75-13.92,1.62-20.81-.49Z" transform="translate(-21.78 -20.33)"/><path class="af" d="M75.91,105.72c4-1.87,6.83,1.69,9.66,3a242.48,242.48,0,0,0,33.06,12.49c4.12,1.2,4.3,3.07,3.28,6.34-3.72,12-5.6,24.29-7.4,36.62-.55,3.78-.66,7.63-.91,11.44-.18,2.65-1.4,3.62-4.16,3.6-19.16-.1-38.32,0-57.48,0-2.11,0-4,.08-3.51-3.16,3.23-23,10.29-44.59,23.21-64.07C73.86,110.4,74.57,107.84,75.91,105.72Z" transform="translate(-21.78 -20.33)"/><path class="ag" d="M160,50.38c-14,15.62-23.41,33.42-31,52.3a15.1,15.1,0,0,0-1,3.31c-.39,2.78-1.5,3.52-4.39,2.66-11.82-3.53-22.93-8.79-34.26-13.5-1.82-.75-4.48-1.54-1.6-4.4,20-19.81,43.47-33.52,70.77-40.58C158.8,50.09,159.15,50.25,160,50.38Z" transform="translate(-21.78 -20.33)"/><path class="ah" d="M75.91,105.72c-.47,2.72-.82,5.52-4.25,6.21A12.77,12.77,0,0,1,75.91,105.72Z" transform="translate(-21.78 -20.33)"/><path class="ai" d="M141.83,170c3.64-3.15,7.09-2.24,10,.94,2.53,2.79,2.69,6,0,8.94s-6.25,3.14-10.56.09C137.92,176.57,138.09,173.79,141.83,170Z" transform="translate(-21.78 -20.33)"/><path class="aj" d="M141.83,170c-1.8,3.23-3.23,6.47-.63,10-2.36.32-3.25-.75-3.24-3.08C138,173.78,137.85,170.76,141.83,170Z" transform="translate(-21.78 -20.33)"/><path class="aj" d="M134.1,176a21,21,0,0,1,6-11.93C139.27,168.66,136.83,172.41,134.1,176Z" transform="translate(-21.78 -20.33)"/><path class="ak" d="M291.19,76.32c-.61,3.26-2.4,5.72-6.1,5.68a5.55,5.55,0,0,1-5.85-6,5.62,5.62,0,0,1,6-5.87C288.91,70.17,290.9,72.42,291.19,76.32Z" transform="translate(-21.78 -20.33)"/><path class="al" d="M288,100c2,2.46,3.11,5.17,1.13,8s-4.91,3.59-8.24,2.38c-2.89-2.44-3.73-5.34-1.57-8.63S284.75,98.69,288,100Z" transform="translate(-21.78 -20.33)"/><path class="am" d="M241.79,128.9c-2.89-.39-5-2.05-5.07-5.66s2.46-6.13,6.29-6c3.53.13,5.53,2,5.74,5.52C249,126,245.7,129,241.79,128.9Z" transform="translate(-21.78 -20.33)"/><path class="an" d="M294.18,85.21c6-3.72,10.88,1.29,10,5.73-.7,3.44-2.89,5.11-6.27,5-4.47-.13-5.14-3.29-5.11-6.88C293.25,87.79,293.71,86.5,294.18,85.21Z" transform="translate(-21.78 -20.33)"/><path class="ao" d="M263.19,106.72c-.32,3.38-2,5.69-5.95,5.62-3.74-.07-5.25-2.28-5.27-5.83,0-3.89,2-6,5.77-5.87C261.21,100.77,263.17,102.82,263.19,106.72Z" transform="translate(-21.78 -20.33)"/><path class="ap" d="M235.91,109.94c-.91,3.14-2.32,6-6.15,6-3.65,0-5.52-2.44-5.43-5.75.09-3.48,2.17-6.1,5.89-6.06C233.63,104.17,235.51,106.44,235.91,109.94Z" transform="translate(-21.78 -20.33)"/><path class="aq" d="M243.64,100.1c-3.49-.4-5.62-2.2-5.6-5.72,0-3.88,2.49-5.63,6.14-5.52,3.37.11,5.88,1.8,5.68,5.44S247.08,99.63,243.64,100.1Z" transform="translate(-21.78 -20.33)"/><path class="ar" d="M258,82.05c-3.69-.19-5.89-1.89-5.82-5.51.06-3.41,1.89-5.58,5.5-5.76s5.86,1.86,6,5.2C263.76,79.53,261.47,81.68,258,82.05Z" transform="translate(-21.78 -20.33)"/><path class="as" d="M275.33,118c.57,5.61-1.52,8-7.27,8.12-2.69-1.13-4.35-3-4.07-6.09a5.62,5.62,0,0,1,4.15-5C271.36,113.92,273.51,115.63,275.33,118Z" transform="translate(-21.78 -20.33)"/><path class="at" d="M270.22,96.38c-3.7-.35-5.44-2.44-5.31-6s2.14-5.64,5.67-5.6,5.68,2,5.57,5.65S274,96.24,270.22,96.38Z" transform="translate(-21.78 -20.33)"/><path class="au" d="M262.21,135c-.65,5.67-2.1,6.91-8.16,7-2.38-2-4.08-4.32-2.86-7.65.78-2.12,2.13-3.69,4.64-3.71C258.94,130.62,261.15,132,262.21,135Z" transform="translate(-21.78 -20.33)"/><path class="av" d="M101,252.47a6.09,6.09,0,0,1-6.72,5.76c-3.68-.28-5.32-2.59-5.19-6,.14-3.71,2.49-5.71,6.09-5.9C98.36,246.17,101.08,249.22,101,252.47Z" transform="translate(-21.78 -20.33)"/><path class="aw" d="M71.89,290.79c.46-3.69,2.43-5.84,6.21-5.78s5.58,2.35,5.51,5.76-2.08,6.09-5.87,6.14S72.28,294.36,71.89,290.79Z" transform="translate(-21.78 -20.33)"/><path class="ax" d="M120.07,283.1c-3.44-.28-5.87-1.79-6-5.39s1.82-6.24,5.53-6.36c3.48-.11,6.22,1.71,6.26,5.59C125.91,280.63,123.65,282.61,120.07,283.1Z" transform="translate(-21.78 -20.33)"/><path class="ay" d="M98.42,277.58c-.3,3.8-2.62,5.61-6.52,5.57-3.45,0-5.1-2-5.24-5.31-.16-3.62,2.54-6.18,6.24-6.09S98.3,273.77,98.42,277.58Z" transform="translate(-21.78 -20.33)"/><path class="az" d="M127.93,250.87c-.07,3.58-2.22,5.73-5.8,5.84s-5.39-2.28-5.37-5.76c0-3.71,2-5.9,5.79-6S127.9,247.08,127.93,250.87Z" transform="translate(-21.78 -20.33)"/><path class="ba" d="M134,283.94c2.67,1.94,4.87,4.24,3.69,7.83a5.68,5.68,0,0,1-6,4.18c-4.14-.29-4.69-3.49-4.94-6.77C127.44,285,130.22,283.77,134,283.94Z" transform="translate(-21.78 -20.33)"/><path class="bb" d="M110.23,290.86c-.39,3.67-2.14,6-5.62,6-3.71,0-5.84-2.25-5.69-6s2.47-5.83,6.08-5.78S109.88,287.88,110.23,290.86Z" transform="translate(-21.78 -20.33)"/><path class="bc" d="M134.54,268.14c-3.36-.49-5.71-2.12-5.51-5.79.19-3.43,2.12-5.48,5.78-5.52s5.83,1.95,5.85,5.38C140.68,265.88,138.25,267.83,134.54,268.14Z" transform="translate(-21.78 -20.33)"/><path class="bd" d="M102,313.77c2.73-.17,5.39-.1,6.63,3a6,6,0,0,1-.79,6.08,5.61,5.61,0,0,1-6.15,2.14c-3.81-.79-4.09-3.77-3.93-6.92A6.55,6.55,0,0,1,102,313.77Z" transform="translate(-21.78 -20.33)"/><path class="be" d="M145,268.91c3.1-.07,6.19,0,7.06,3.86.73,3.23,0,6-3.37,7.37-4.1,1.65-6.05-1-7.69-4.09C140.84,272.83,142.53,270.65,145,268.91Z" transform="translate(-21.78 -20.33)"/><path class="bf" d="M119,299.11c2.53,1.09,5,2.45,4.75,5.63a5.6,5.6,0,0,1-4,5.25c-3.25,1-5.84-.08-7.68-2.94C111.83,302.21,113.78,299.26,119,299.11Z" transform="translate(-21.78 -20.33)"/><path class="bg" d="M113.4,265.68c-.88,3.5-3,5.65-6.72,5.32-3.44-.3-4.88-2.91-4.54-6.05.39-3.44,2.65-5.35,6.23-5C111.7,260.25,113.33,262.29,113.4,265.68Z" transform="translate(-21.78 -20.33)"/><path class="bh" d="M109.74,244.26c-3.57-.08-5.27-2.27-5.32-5.34,0-3.31,1.75-5.7,5.41-5.76,3.48-.06,5.79,1.83,5.89,5.29C115.84,242.28,113.12,243.8,109.74,244.26Z" transform="translate(-21.78 -20.33)"/><path class="bi" d="M90.67,311c-4.12-.15-5.7-2.14-5.73-5.43,0-3.51,1.55-5.69,5.34-5.61,3.26.06,5.52,1.72,5.65,5C96.08,308.77,93.48,310.43,90.67,311Z" transform="translate(-21.78 -20.33)"/><path class="bj" d="M210,284c-1.67-2.79.28-5.15,1.1-7.51,1-3,.95-5.15-2.22-6.49.1-.63.19-1.26.29-1.89,3.07-.77,4.5-3.85,7.24-5.11,1.11-.51,1.76-2.31,3.35-1.38s1.18,2.55,1.15,4.05C220.73,273.85,216.48,279.59,210,284Z" transform="translate(-21.78 -20.33)"/><path class="bk" d="M138,316.72c-.12,4.43-3,7.38-6.35,7-3.72-.39-5-2.93-4.89-6.29.1-3.72,1.87-5.92,5.87-5.74C136.33,311.89,137.86,314.08,138,316.72Z" transform="translate(-21.78 -20.33)"/><path class="bl" d="M166.27,287.76c-.24,3.51-2.18,5.53-6,5.49-3.61,0-5.52-1.95-5.5-5.55,0-3.86,2.17-5.77,5.93-5.67C164.15,282.12,166.29,283.78,166.27,287.76Z" transform="translate(-21.78 -20.33)"/><path class="bm" d="M146.49,297.11c3.28.43,5.34,2.45,5.36,5.86,0,3.76-2.41,5.82-6,5.85-3.36,0-5-2.43-5.41-5.45C140,300.55,143.43,297.13,146.49,297.11Z" transform="translate(-21.78 -20.33)"/><path class="bn" d="M278,150c0,3.68-3.39,7.17-6.46,6.82-3.3-.37-4.95-2.58-5.11-5.78s3.18-7,6.12-6.67A5.85,5.85,0,0,1,278,150Z" transform="translate(-21.78 -20.33)"/><path class="bo" d="M317.13,107.28c-.55,3.14-1.82,5.88-5.87,5.82-3.62-.06-5.51-1.95-5.43-5.65s3-6.69,6.29-6.29S317,103.76,317.13,107.28Z" transform="translate(-21.78 -20.33)"/><path class="bp" d="M299.18,128.07c-3.86-.2-5.5-2.12-5.46-5.76,0-4.08,2.37-5.54,6-5.48,3.37.06,6.14,1.32,5.79,5.15C305.22,125.63,302.94,127.94,299.18,128.07Z" transform="translate(-21.78 -20.33)"/><path class="bq" d="M287.68,145.47c-4.27-.3-6.05-2.33-5.88-5.93s2.17-5.48,5.75-5.52,5.48,2.06,5.61,5.59C293.3,143.75,290.37,144.82,287.68,145.47Z" transform="translate(-21.78 -20.33)"/></svg>