<svg xmlns="http://www.w3.org/2000/svg" viewBox="0 0 259.59 355.77"><defs><style>.a{fill:#7398a6;}.b{fill:#02161b;}.c{fill:#e1ecf2;}.d{fill:#7a9dac;}.e{fill:#799cac;}.f{fill:#011719;}.g{fill:#01161a;}.h{fill:#2f5361;}.i{fill:#2f5461;}.j{fill:#03171d;}.k{fill:#03171b;}.l{fill:#ddeaf1;}.m{fill:#dbeaf0;}.n{fill:#7a9dab;}.o{fill:#1b3b41;}.p{fill:#7c9faf;}.q{fill:#f4fafa;}.r{fill:#7c9fad;}.s{fill:#7b9dab;}.t{fill:#fcfcfd;}.u{fill:#04161b;}.v{fill:#031619;}.w{fill:#0a191b;}</style></defs><title>CAR</title><path class="a" d="M269.13,179.66,264,173.94c-1.48-2.84,1-4.31,2.3-6,11.61-14.82,11.21-37.4-.93-51.84-5.64-6.72-13.1-10.2-21.17-12.37-4.48-1.21-7.11-2.87-8.39-7.72C233.05,85.57,225,79.76,214.18,79.41c-6.31-.21-6.32-.21-6.64-6.78C206.28,47,185.6,31.09,165.36,28.42c-4.27-.56-8.61-.62-12.78-1.86-1.7-1.93.13-2.89,1.21-3.9a21.66,21.66,0,0,1,7.34-4.59c4.72-1.86,9.26-.13,13.64,1.11,20.57,5.82,35.75,18,41.27,39.18,1.78,6.83,3.6,10.44,10.92,12.3,8.93,2.26,14.74,9.41,18.08,18,1.17,3,2.87,4.31,5.83,5.22C288,105.2,296,150.23,273.49,176.76,272.37,178.08,271.35,179.86,269.13,179.66Z" transform="translate(-26.41 -17.06)"/><path class="b" d="M192,370a11.61,11.61,0,0,1-8.22,2.75q-30.57,0-61.13.08c-2.43,0-4.47-1-6.66-1.6-4.07-1.84-6-5.86-5.2-11a11.37,11.37,0,0,1,9.08-9.43c5.59-.95,9.6,1.62,13.39,6.6.47-7.06,2.64-12.59,7.19-17,3.21-1.75,6.26-4,10.25-3.38,1.13.27,2.37.9,3.41.44,5.45-2.37,9.17.56,12.81,3.92,4.2,4.15,6,9.34,6.38,15.19,2.06-.36,2.71-2.07,3.91-3.08a10.85,10.85,0,0,1,12.89-1.25c4.8,2.9,7.19,8.19,5.82,13.07C195.33,367.44,194.47,369.42,192,370Z" transform="translate(-26.41 -17.06)"/><path class="c" d="M161.13,18.07c-2.28,3.49-6.82,4.45-9,8l-.54.56c-4.24,2.08-9,2-13.45,3.55-20.08,7-32.38,20.31-34.67,41.89-.36,3.37-1.86,5.13-5.06,5.76A34.73,34.73,0,0,0,94,79c-9.3,3.18-16.68,8.36-18.91,18.66-.82,3.78-2.88,5.31-6.76,6a38.6,38.6,0,0,0-32,37.38c0,2.09.5,4.4-1.55,6-1.65-2.53-.47-5.37-.85-8,.32-2.82-1.39-4.22-3.62-5.34-3.24-1.64-4.18-4.14-2.45-7.41,2.63-5,4.88-10.17,7.89-15C41.07,102.81,48.63,97.69,58,94.8a13.34,13.34,0,0,0,8.65-7c4-8.2,10-14.45,18.58-17.87,5.49-2.19,8.73-5,10-11.67,1.65-9.08,6.53-17.22,13.69-23.76,11.83-10.79,25.35-17.3,41.53-17.46C154,17,157.56,17.71,161.13,18.07Z" transform="translate(-26.41 -17.06)"/><path class="d" d="M28.75,328.16c-3-5.49-2.5-11.34-1.77-17.21,2.08-1.83,4.64-1.65,7.12-1.65,30.79-.06,61.59,0,92.38-.09a8,8,0,0,1,5.75,6.77,86.4,86.4,0,0,1,.05,18.19,3.2,3.2,0,0,1-1.46,2.47,2.61,2.61,0,0,1-2.87-.54c.16-7.37.16-7.41-7.4-7.42q-41.68,0-83.36,0A55.39,55.39,0,0,1,28.75,328.16Z" transform="translate(-26.41 -17.06)"/><path class="e" d="M177.1,327.07,177,314c.72-2.81,2.84-3.88,5.44-4.37,5.46-.7,11-.33,16.42-.34q36.38-.07,72.75,0c1.66,0,3.32,0,5,.11,3.24.21,5.46,1.31,4.91,5.18-.3,2.12.37,4.32-.41,6.42-.85,3.23-1,6.8-4.06,9-2.22-1.46-4.72-1.31-7.22-1.31q-42.31,0-84.64,0C182.41,328.67,179.48,329.17,177.1,327.07Z" transform="translate(-26.41 -17.06)"/><path class="f" d="M41.15,342l0-2c.11-3.32,2.06-4.52,5.13-4.61,11.71-.31,23.42.31,35.12-.38a3.42,3.42,0,0,1,3.66,2c0,7.31.22,14.62-.06,21.92-.32,8.33-4.67,12.71-13,13.4a114.38,114.38,0,0,1-19.41-.15c-5.25-.46-9.07-2.89-10.62-8.19-1-5.52-.18-11.1-.46-16.64C41.41,345.56,41.83,343.74,41.15,342Z" transform="translate(-26.41 -17.06)"/><path class="g" d="M265.15,362.13c-1.8,6.91-4.77,9.68-11.65,10a162.58,162.58,0,0,1-18.86.07c-7.72-.51-12.3-5.57-12.52-13.34-.19-7,0-13.92,0-20.88,1.27-2.54,3.7-2.6,6-2.65,11.13-.22,22.27.1,33.4-.19,2.11-.05,4.06.11,4,3.08C265.25,346.21,265.92,354.18,265.15,362.13Z" transform="translate(-26.41 -17.06)"/><path class="h" d="M265.15,362.13c-.06-7.45-.09-14.91-.22-22.36,0-1.43.71-3.3-2.28-3.22-11.93.28-23.87.29-35.8.36-1.68,0-3.32,0-4.74,1.1-.53-2.66-2.67-2-4.36-2-10.62,0-21.24,0-31.86,0-9,0-9,0-8.79-8.92q48.78-.07,97.55-.21c2.71,0,3.12.93,2.39,3.14a14.53,14.53,0,0,1-8.22,5.24c-2.58.52-2.82,2-2.91,4.24C265.6,347,266.92,354.64,265.15,362.13Z" transform="translate(-26.41 -17.06)"/><path class="i" d="M85.08,337c-2.9-1.76-5.84,0-8.76,0-10-.2-19.94,0-29.9-.14-2.68,0-4.4.63-5.25,3.18-.23-2.14-.36-3.95-3.24-4.66-4-1-7-3.69-9.18-7.2,1.14-1.79,3-1.18,4.53-1.18q45.82-.09,91.63-.06c1.64,0,4.4-1,4.67,1.32.29,2.56,2.13,6-1.63,7.86L89.26,336C87.79,336,86.26,335.79,85.08,337Z" transform="translate(-26.41 -17.06)"/><path class="j" d="M53,201q-3.49,13.51-7,27c-1,.1-2,.17-3,.31-14.94,2.16-18.37-8.54-15.75-20.14a8.37,8.37,0,0,1,6.2-6.62C39.9,200.23,46.46,199.47,53,201Z" transform="translate(-26.41 -17.06)"/><path class="k" d="M261.08,225.81c-1.29-8.14-3.92-15.93-6.23-23.81.21-.73.06-1.79,1.22-1.8,6,0,12-.5,17.8,1.14,5.08,1.43,7.56,7.08,7.1,14.91-.38,6.36-3.76,11-9.39,11.76C268,228.47,263.66,230.81,261.08,225.81Z" transform="translate(-26.41 -17.06)"/><path class="l" d="M181,310.84c1-1.5,1-3.23,1.05-4.95q46.48.06,93,.09c1.08,0,2.39.44,3.06-1,4.84,4.6,4.75,10.13,3,16-.16-10-.16-10-10.34-10Z" transform="translate(-26.41 -17.06)"/><path class="m" d="M125,306c-.43,1.9,1.13,2.87,2,4.19a42.28,42.28,0,0,1-5.86.8Q74,311,27,311c2.89-5.31,1.1-11.43,2.92-16.93a5.62,5.62,0,0,1,.18,1c.29,11,.29,11,11.1,11Z" transform="translate(-26.41 -17.06)"/><path class="i" d="M41.15,342c1.75,7.28.31,14.68.82,22C39.81,356.73,41.25,349.33,41.15,342Z" transform="translate(-26.41 -17.06)"/><path class="n" d="M141.23,341.18l-.27-36.1c3.86,2.28,5.53,6.78,9.48,9.28,1.85-2.83-.64-6.47,1.68-9.11a5.55,5.55,0,0,1,1.33,5.09c-1.59,8.8.46,17.77-1.35,26.54a3.36,3.36,0,0,1-1,1.44C147.11,336.82,144.58,340.41,141.23,341.18Z" transform="translate(-26.41 -17.06)"/><path class="o" d="M166,305q-.08,18.5-.16,37c-3.27-2.36-6.13-5.93-11-3.05a3.24,3.24,0,0,1-3.71-.63.59.59,0,0,0-.06-.73c2.7-1.45,3.35-3.86,3.33-6.71,0-5.82-.07-11.63,0-17.44,0-2.27-.36-4.73,1.76-6.46,1.56,1.45.28,3.58,1.4,5.49C160.43,310,163.85,308.25,166,305Z" transform="translate(-26.41 -17.06)"/><path class="p" d="M49.92,237.79c3.67-.67,5-2.83,5.71-6.56,2.14-11.07,4.91-22,7.46-33a3.22,3.22,0,0,1,1.58-2.57c1.78,4.45,3.56,8.87,5.33,13.3-2.87,1.24-2.27,4.16-2.86,6.37-1.68,6.25-3,12.59-4.45,18.9-.54,2.38-1.42,3.71-4.35,3.33C55.59,237.19,52.74,237.68,49.92,237.79Z" transform="translate(-26.41 -17.06)"/><path class="q" d="M156.18,307c0,8.95-.31,17.9,0,26.83.18,4.58-1.56,5.07-5.15,3.78q.54-16.17,1.07-32.34C153.74,305.22,155.82,304.08,156.18,307Z" transform="translate(-26.41 -17.06)"/><path class="g" d="M152.1,26.1c12.12.11,23.73,1.68,34.33,8.5,14.66,9.43,22.22,22.54,22.3,39.88,0,2.82.46,3.52,3.41,3.47,13.81-.24,23.39,7.38,25.68,20.65.54,3.14,2.55,2.61,4.18,3,8.61,2.26,16.78,5.14,23,12.09,15,16.71,15.19,40.31.33,57.19-.79.89-1.63,1.68-1.34,3-3.54.69-5.63,3.73-8.64,5.36-4.57,2.48-9.2,4.65-14.38,5-3.55.23-4.48,1.7-4.91,5.09-2.56,20.2-21.32,36.37-41.47,35.38-4.77-.23-6.64.68-9,5.12-6.68,12.87-18,19-32.55,18.95-.47-.17-1.2-.37-1.24-.73-.71-5.78-5.41-6.6-9.7-8.32a24.24,24.24,0,0,1-11.83-9.56c-2.58-4.21-5.47-6.53-10.4-6.08-18.7,3.63-39.58-9.49-43.76-28.11-1.62-7.2-3.51-11.4-12.15-13.47C48.74,178.88,39.21,167.79,35.9,152c0-.17-.12-.42,0-.49a19.22,19.22,0,0,0,5-10.52c2.52-18,14.09-30,31.27-32.81,2.65-.42,5.25.15,7.89.09-2-20.35,16-28.77,29.31-22-2.9-15.53,1-29.14,12.19-40.16a42.8,42.8,0,0,1,22.3-11.56c4.16-.79,7.36-1.83,7.17-6.87,0-.65.59-1.16,1.06-1.63Z" transform="translate(-26.41 -17.06)"/><path class="r" d="M152.08,26.08c-.47,8.3-.51,8.09-8.74,10-24.44,5.64-38.52,28.44-31.89,53.05-7.65-4.83-15.52-5.44-22.79-.23-7.1,5.09-8.83,12.47-6,21.09-3.21-.21-6.2-.83-9.11-.54a34.78,34.78,0,0,0-31.31,34.79c0,4.09.43,7.64-5.38,6.77-.27,0-.64.66-1,1-.87-1.55-1.81-3.09-1.07-5-.85-13.69,3-25.52,13.37-35A38.92,38.92,0,0,1,69.42,102c2.33-.32,3.47-.92,4-3.33,2.76-13.07,11.84-19.43,24.15-22,3.3-.68,4.33-1.82,4.63-5.38,2-23.66,19.75-39.84,42.53-44.3C147.13,26.56,149.62,26.39,152.08,26.08Z" transform="translate(-26.41 -17.06)"/><path class="s" d="M119.92,224.13a20.06,20.06,0,0,0,3.29-1.06c2.58-1.33,3.88-.68,5.27,2,3.89,7.51,9.88,12.94,18.25,14.89,4,.93,6.1,2.37,5.37,6.72-.1.64.64,1.42,1,2.14-14.44-.46-24.33-7.93-31.06-20.22C121.24,227.16,120.62,225.62,119.92,224.13Z" transform="translate(-26.41 -17.06)"/><path class="t" d="M106.59,186.47c-2.29-.75-4.07-1.18-5.44-2.52-2.56-2.5-3.88-5.44-2.76-9,1-3.25,3.14-5.49,6.7-5.86,3.8-.39,7.78-.21,9.48,3.77,1.49,3.5,3.1,3,5.84,1.77,4.36-2,8.88-3.7,13.4-5.34,1.82-.66,3.47-1,3.27-3.54-.16-2.15.2-4.21-2.62-5.21-4.05-1.45-8-3.3-11.92-5-6.37-2.8-7.93-7.33-4.25-13.11.88-1.38,1.22-2.06.43-3.7-7.91-16.42-5.77-32.56,5.77-44.84s30.11-16,46-10.18c20.67,7.55,34.76,34.93,21.32,55.51-1.08,1.64-.51,2.44.47,3.82,3.84,5.35,2.65,9.58-3.31,12.44-3.74,1.8-7.47,3.63-11.32,5.17-2.54,1-3.41,2.47-3.44,5.24,0,3.23,2.25,3.14,4.15,3.88,2.62,1,5.22,2.11,7.85,3.14,4.06,1.58,7.93,5.25,11.4-1.65,1.71-3.4,6.41-2.93,10-1.41,3.28,1.38,4.68,4.15,4.71,7.56,0,3.87-1.63,6.86-5.37,8.14-2.16.73-3.28,1.09-2.47,4a8.09,8.09,0,0,1-6.25,10.21c-4.35,1-9.37-1.72-10.32-6.43-.76-3.73-2.69-5.47-5.92-6.84-8.11-3.43-16.12-7.08-24.11-10.77a5.24,5.24,0,0,0-4.71,0q-14.19,6.08-28.48,12c-1.49.62-2.57,1.22-2.45,3.16.24,4.35-1.78,7.41-5.89,8.81-3.32,1.13-6.26,0-8.66-2.38C104.54,194.06,104.31,190.49,106.59,186.47Z" transform="translate(-26.41 -17.06)"/><path class="u" d="M160.84,134A11,11,0,1,1,172,145.39,10.93,10.93,0,0,1,160.84,134Z" transform="translate(-26.41 -17.06)"/><path class="v" d="M127.74,134.11a11,11,0,0,1,10.6-10.93c5.76-.1,11.06,5.16,11.18,11.09a11.36,11.36,0,0,1-11.05,11.16C132.6,145.53,127.71,140.37,127.74,134.11Z" transform="translate(-26.41 -17.06)"/><path class="w" d="M146.13,159.25c-.09-2.61,6.56-11.49,9-11.21,4.5.53,5.66,5.17,8.17,8.05,1.74,2,1.3,4.8-.58,6.86s-4.28,1.15-5.23-2.29c-.38-1.35.12-3.1-2.24-3.11s-1.7,1.57-1.81,2.78c-.2,2.33-1.23,3.81-3.76,3.66C147.62,163.87,146.23,161.92,146.13,159.25Z" transform="translate(-26.41 -17.06)"/><path class="g" d="M277.76,267.13c.51-13.23-4.42-22.81-16.1-28.95-7.09-2.4-8.27-8.57-9.68-14.78s-2.79-12.34-4.75-18.37c-.52-1.63-.76-4-3.06-4-1.84,0-2.37,2.1-3.08,3.59-7.91,16.59-20.75,26.64-39.17,28.66a14.22,14.22,0,0,0-11,6.46c-19,27.06-60.26,22.85-73.72-2.43a6.54,6.54,0,0,0-6-3.67c-15.22-.61-27-7.52-35.79-19.76-1.52-2.11-2.76-4.66-5.72-5.26-3,.82-3.27,3.47-3.85,5.83-1.36,5.62-2.52,11.29-3.81,16.93-.67,2.9-1.75,4.79-5.25,4.58-2.26-.13-4.53.88-6.86.59-2.31,0-4.36.61-5.8,2.58-10.47,6-14.28,15.34-14,27.05.25,9.27-.1,18.55-.19,27.83-.79,3-.13,6-.41,8.92s1.17,4.28,3.92,4.59a39.41,39.41,0,0,0,4.48.21q39.92,0,79.83,0c2.32,0,4.67.12,6.85-1,2.69-2.31,1.77-5.5,2-8.38.18-2.21.23-4.16,3.19-4.74,7.65-1.5,7.62-1.62,7.8-9.51,0-.83.05-1.66.07-2.49,0-2.62,1.27-3.92,4-3.94,2.87,0,3.72,1.57,3.77,4.08.07,4.15-.09,8.3.06,12.44.13,3.43-1,5.32-4.73,5.38-1.79,0-3.86.31-4.3,2.59s1.13,3.28,2.88,4.09c4,.94,5,5,7.85,7.21,1,.8,2.08,1.94,3.46,1.5s1.44-2,1.65-3.33-.26-3,.64-4.36c1.1-.8,1.72-.13,2.28.72,1.57,6.33,1.94,6.42,7.12,2.51,1.83-1.39,3.2-3.44,5.6-4,1.91-.72,3.94-1.51,3.71-4-.25-2.65-2.58-2.62-4.52-2.94a4.73,4.73,0,0,0-1-.08c-3.47.13-4.63-1.72-4.54-5,.11-4.14,0-8.29,0-12.44,0-2.71.9-4.41,4-4.43s4.79.91,4.78,4.21c0,1.82.07,3.64.09,5.47,0,3.65,1.41,6.17,5.46,6.19,3.48,0,4.49,1.86,4.54,5.05,0,2.87-.73,6.08,2.1,8.28,2,1,4.2.89,6.36.9,5.83,0,11.66,0,17.49,0,21.31,0,42.62.06,63.93-.08,2.72,0,6.19,1.16,7.74-2.65C277.94,292.38,277.27,279.73,277.76,267.13ZM57.65,287c-6.2,0-12.37-6.08-12.27-12.11a12.34,12.34,0,0,1,12.23-11.94,12,12,0,0,1,0,24.05Zm182,0c-6.23-.06-12-6.05-11.85-12.4a11.94,11.94,0,0,1,11.77-11.73c6.59.05,12.24,5.6,12.23,12A12.44,12.44,0,0,1,239.7,287Z" transform="translate(-26.41 -17.06)"/></svg>