<svg xmlns="http://www.w3.org/2000/svg" viewBox="0 0 398.46 331.44"><defs><style>.a{fill:#4f3d3f;}.b{fill:#90929c;}.c{fill:#f6f6f6;}.d{fill:#c5bec5;}.e{fill:#e65047;}.f{fill:#a83c37;}</style></defs><title>FACTORY</title><path class="a" d="M137.23,202.67c2.64-.07,5.27-.09,7.9-.22,1.3-.07,3.1.33,3.11-1.8s-1.62-2.32-3.31-2.33c-2.63,0-5.26-.12-7.89-.19a6.43,6.43,0,0,1-1.68-4.32c-.23-8.07-.25-16.14,0-24.2a5.76,5.76,0,0,1,1.78-4.26l8.48-.17c8.84-.17,8.87-.17,9.41,8.77.43,7.18.77,14.37,1.2,22.49,2.74-2.18,4.91-3.85,7-5.59,1.75-1.43,3.57-2.3,5.83-1.29s3.2,3.05,3.2,5.57c0,11.82,0,23.64,0,36,3.65-1.76,7.13-2.92,7.49-7.4a12.75,12.75,0,0,1,6.81-9.45c3.48-1.88,5.74-4.61,5.53-8.9a2.71,2.71,0,0,1,1.49-2.63c2.26-.1,4.54-.12,6.8-.33,1.52-.15,3.91.82,3.77-2.15-.11-2.4-2.07-1.87-3.55-1.93-2.1-.09-4.2-.1-6.3-.15a7.6,7.6,0,0,1-1.65-4.9c-.14-7.74-.16-15.49,0-23.22a6.66,6.66,0,0,1,1.78-4.84l6.9-.06c9.2-.12,9.27-.13,9.93,9.31.49,7,.07,14.07,1.39,21.57,2.25-1.62,4.22-3,6.14-4.46s3.59-3.15,6.16-2c2.85,1.31,3.26,3.9,3.26,6.68q0,15.13,0,30.27v5.14c7.36-5,14.52-8.93,20.84-14.25,2.16-1.82,4.64-5.27,7.49-3.93C259.68,215,258,219,258,221.87c.19,9.7.07,19.4.07,29.73A106.44,106.44,0,0,0,273,241.14c2-1.64,1.21-3.95,1.21-5.95,0-37.17,0-74.35,0-111.52,0-7.88.69-15.3,4.56-22.86,9.74-19.06,34.2-22.21,48-12.51,10.41,7.32,15.83,16.86,15.75,29.89-.27,39.29-.12,78.59-.28,117.88,0,2.92,1.32,4.55,3.24,6.19,9.79,8.4,19.51,16.89,29.42,25.14a7.78,7.78,0,0,1,3.22,6.69c-.12,14-.05,28-.05,41.94-1.95,2-4.52,1.82-7,1.83q-90.75.08-181.5,0a14.11,14.11,0,0,1-6.23-.95c-3.18-2.5-2.15-6.09-2.3-9.32-.3-6.35-.68-6.8-7.15-6.88-.88,0-1.77.07-2.65,0-4.26-.34-6.05,1.56-6.05,5.87,0,3.41,1,7.15-1.86,10.1-4.18,1.94-8.64,1.19-13,1.08-6.43-.15-13,1.11-19.29-1-3-2.81-1.89-6.56-2.11-10-.35-5.41-.81-5.95-6.27-6.11-.71,0-1.42,0-2.12,0-6.8.06-7.15.46-7.41,7.13-.12,3.07.75,6.45-2.06,8.94-2.3,1.21-4.8,1.07-7.26,1.08q-27.78,0-55.56,0c-2.76,0-5.71.45-8-1.82,0-21.41.08-42.81-.07-64.22A7.93,7.93,0,0,1,44,244.4c7.88-5.63,15.51-11.62,23.23-17.47.16-6,3-10.14,8.22-13,2.67-1.43,3.86-3.95,3.87-7,0-1.56.06-3.22,1.63-4.23,2.45-.05,4.9-.05,7.34-.18,1.42-.08,3.45.56,3.3-2.06-.14-2.38-2-1.93-3.5-2l-7.32-.36a4.25,4.25,0,0,1-1.3-2.25,147.63,147.63,0,0,1,0-28.28,3.79,3.79,0,0,1,1.38-2.18c4.24-.11,8.48-.1,12.7-.39,3.13-.22,4.33.72,4.33,4.09,0,9.14,1.58,18.22.84,28.85,3.41-2.69,5.89-4.48,8.17-6.5,1.81-1.6,3.6-3,6.08-1.75,2.28,1.18,2.91,3.3,2.9,5.79,0,11,0,21.91.07,32.86v3.85c3.21-2.12,6.27-3,7.49-6.31.32-6.14,3.57-10.3,8.75-13.29a6.83,6.83,0,0,0,3.37-5.68C135.7,205.36,135.69,203.69,137.23,202.67Z" transform="translate(-9.67 -4.86)"/><path class="b" d="M185.89,117.37q.5-16.17,1-32.33c.27-9,5.86-14.86,14.81-15.47,4.59-.32,9.19-.78,13.77-.68s5.81-1.83,5.75-6.07c-.12-8.81-.14-17.59,1.76-26.35,2.53-11.76,18.56-21.44,28.26-21.25,15.22.29,30.45.06,45.68.08,2.67,0,5.28,0,7.45-2C323.29-4.35,346.22,8.67,353.91,25c9,19.06-4.43,42.76-25.47,44.67-18.19,1.64-36.43.31-54.65.7-7.8.17-8.35.62-8.4,8.6-.1,14.66-8.79,23.41-23.39,23.48-9.91,0-19.83.16-29.74,0-3.92-.07-5.5,1.16-5.09,5.19.33,3.15.11,6.37.14,9.55C200.19,120.5,193.05,120.2,185.89,117.37Z" transform="translate(-9.67 -4.86)"/><path class="b" d="M40.32,316h71.21a23.35,23.35,0,0,1,19.39,0h32.54a23.47,23.47,0,0,1,19.34,0l180.4,0c5,0,9.91,0,14.86,0,6.52,0,13.05-.07,19.57,0s9.43,2.8,10.5,9.3c-2.59,3.62-6.32,4.93-10.55,5.21-1.95.13-3.89.12-5.84.12q-183.57,0-367.14,0c-5.57,0-11.07,0-14.93-5,2.51-7.89,4.77-9.64,12.72-9.68C28.37,316,34.34,316,40.32,316Z" transform="translate(-9.67 -4.86)"/><path class="b" d="M130.47,117.11c.07-11.65-.07-23.31.28-35,.2-6.68,6-12,12.77-12.56,3.53-.27,7-.52,10.59-.63,4.63-.15,6.66-2.3,6.39-7s-.13-9.21,0-13.81c.22-9,5.55-14.69,14.54-15.86a73.2,73.2,0,0,1,19.56,0c7.66,1,13.8,7.85,13.32,15.23s-7.64,14-14.8,13.76c-14.58-.5-14.63,0-14.61,14.75,0,3.19,0,6.37,0,9.56-.1,7.9-5.26,13.26-13.12,13.69-14.31.78-14.31.78-14.37,15.28v2.65C144.14,120.32,137.3,120.46,130.47,117.11Z" transform="translate(-9.67 -4.86)"/><path class="b" d="M74.19,117.17c.07-11,0-22,.22-32.92.14-8.89,5.68-14.36,14.64-14.73C101.76,69,101.76,69,101.8,56.11c0-3.36,0-6.73.09-10.08a14,14,0,0,1,11.87-13.6,62.92,62.92,0,0,1,21.12,0c7,1.14,13,8.41,12.61,15C147,55.58,141.31,61,132.78,61.07c-9.65.12-11.29,2.79-10.72,10.87a125.9,125.9,0,0,1,0,12.74c-.32,9.53-5.57,14.59-15,14.62h-3.18c-8.56,0-9.14.59-9.11,8.86,0,3,0,6,0,9A23.16,23.16,0,0,1,74.19,117.17Z" transform="translate(-9.67 -4.86)"/><path class="a" d="M9.67,325.68c15.75,5.63,32.07,2.43,48.06,2.48,109.57.37,219.13.16,328.7.17,7.39,0,14.86.86,21.7-3,0,8.06-3.06,11-11.76,11l-196.82,0q-88.86,0-177.72,0C13.59,336.28,10.82,333.83,9.67,325.68Z" transform="translate(-9.67 -4.86)"/><path class="a" d="M130.47,117.11l20.53.09c2.9.23,5.17,1.41,5.83,4.43.61,2.81-.09,5.17-3,6.56-2.4,1.16-1.31,3.41-1.22,5.17.38,7.92.84,15.85,1.46,23.75.22,2.93-.51,4.17-3.69,3.93-4.39-.33-8.81-.25-13.21-.35-2-1.73-1.8-4.11-1.84-6.38-.09-4.41-.29-8.84,0-13.23.41-5.68-.16-10.5-6.85-12-2.66-1.63-5.89-3-5.15-6.94C124.1,118.44,127.08,117.35,130.47,117.11Z" transform="translate(-9.67 -4.86)"/><path class="a" d="M185.89,117.37l21.42-.19c3,.36,5.48,1.63,6.23,4.78s-.67,5.09-3.52,6.25c-2.1.86-1.23,2.6-1.14,4.1.49,8.28.9,16.57,1.52,24.84.22,2.92-.53,4.17-3.67,3.92-4-.31-8.12-.26-12.17-.36-2-1.74-1.81-4.11-1.85-6.38-.09-5.47-.15-11,0-16.41.11-4.16-.46-7.46-5.66-7.54a4.53,4.53,0,0,1-2.32-1.2c-2.81-1.46-5.77-2.92-5.22-6.84C180,118.75,182.57,117.5,185.89,117.37Z" transform="translate(-9.67 -4.86)"/><path class="a" d="M74.19,117.17H94.71c3.3.43,5.73,2.11,6.16,5.47a4.87,4.87,0,0,1-3.8,5.54c-2.31.69-1.4,2.6-1.34,4,.34,8.24.54,16.51,1.41,24.7.41,3.89-.9,4.47-4.16,4.24-3.67-.27-7.37-.22-11.06-.31-1.9-1.77-1.78-4.13-1.81-6.42-.08-5.47-.15-11,0-16.42.12-4.14-.43-7.46-5.63-7.57a4.35,4.35,0,0,1-2.31-1.22C69,128,67,126.06,67.52,122.29,68.1,118.35,70.82,117.37,74.19,117.17Z" transform="translate(-9.67 -4.86)"/><path class="b" d="M194.46,165.26l-.15,33c-1.06.06-2.11.16-3.17.17-11.11.06-11.12.06-10.46-10.9.35-5.81.95-11.61,1-17.42,0-3.92,1.47-5.45,5.37-5C189.5,165.35,192,165.21,194.46,165.26Z" transform="translate(-9.67 -4.86)"/><path class="b" d="M137.16,165.35,137,198.13c-1.94.09-3.88.23-5.83.25-7.43.07-7.44.05-6.83-7.2.56-6.69,1.63-13.37,1.57-20.05,0-5.48,2.29-6.7,7-6C134.32,165.31,135.75,165.28,137.16,165.35Z" transform="translate(-9.67 -4.86)"/><path class="b" d="M80.88,165.39q-.06,16.35-.11,32.71c-12,1.12-12,1.12-11.78-10.32.1-5.8.19-11.59.65-17.39.34-4.43,1.78-5.94,6-5.3C77.35,165.35,79.13,165.3,80.88,165.39Z" transform="translate(-9.67 -4.86)"/><path class="b" d="M184.74,129.18c9.5.41,9.47.41,9.54,9.95.05,7.19.18,14.39.28,21.58-14,.38-12.32,2.2-11.14-11.48C184,142.56,183.66,135.82,184.74,129.18Z" transform="translate(-9.67 -4.86)"/><path class="b" d="M72.17,129.15c9.48.61,9.4.61,9.43,10.58,0,7-.58,14.05.32,21.05-11.45.54-11.46.54-10.89-10.58C71.39,143.18,71.79,136.17,72.17,129.15Z" transform="translate(-9.67 -4.86)"/><path class="b" d="M128.54,129.09c8.54.6,8.52.6,8.54,9.49,0,7.37.08,14.74.12,22.11a7.55,7.55,0,0,1-1,.18c-9.83.54-9.72.55-9-9.11C127.81,144.21,128.11,136.64,128.54,129.09Z" transform="translate(-9.67 -4.86)"/><path class="b" d="M137.23,202.67c.85,6.7-2.44,11.43-8.12,13.85-4.62,2-2.66,7-5.65,9.36-.74-6.32,0-12.64,0-19,0-3.43,1.5-4.7,4.85-4.45C131.25,202.7,134.24,202.61,137.23,202.67Z" transform="translate(-9.67 -4.86)"/><path class="b" d="M193.59,202.78c1.11,6.7-2.16,11.09-7.88,13.63-3.45,1.54-3.66,5.18-6,7.35,0-5.63,0-11.26-.12-16.89,0-3.08,1.24-4.56,4.44-4.36S190.42,202.69,193.59,202.78Z" transform="translate(-9.67 -4.86)"/><path class="b" d="M81,202.71c1.18,7.72-2.63,12.74-9.29,15.48-4.43,1.83-1.24,6.75-4.43,8.74.28-6.89.61-13.77.79-20.66.07-2.71,1.29-3.85,3.92-3.77C74.94,202.6,78,202.65,81,202.71Z" transform="translate(-9.67 -4.86)"/><path class="b" d="M44,157.89c-3.55.26-5.51-1.72-5.56-5.2-.06-3.64,2.27-6.21,5.72-6.29s5.39,2.73,5.48,5.94S47.92,158,44,157.89Z" transform="translate(-9.67 -4.86)"/><path class="b" d="M365.36,200.28c-4.32.07-6-2.22-6-5.32,0-3.33,2.11-6,5.51-6s5.68,2.4,5.64,5.81A5.41,5.41,0,0,1,365.36,200.28Z" transform="translate(-9.67 -4.86)"/><path class="b" d="M360,135.16c0-3.78,1.39-5.95,4.9-6.14s5.78,1.52,5.89,5.2c.11,3.49-2.14,5.15-5.28,5.4C362.11,139.89,360.21,138.09,360,135.16Z" transform="translate(-9.67 -4.86)"/><path class="b" d="M40.08,106.69c-2.56-.54-3.9-2.14-3.72-4.48a3.58,3.58,0,0,1,3.86-3.53c2.47.16,3.6,1.88,3.42,4.4A3.48,3.48,0,0,1,40.08,106.69Z" transform="translate(-9.67 -4.86)"/><path class="b" d="M44.58,205.32A3.24,3.24,0,0,1,41,208.69c-2.24,0-3.72-1.1-3.64-3.45A3.57,3.57,0,0,1,41,201.56C43,201.55,44.59,202.73,44.58,205.32Z" transform="translate(-9.67 -4.86)"/><path class="b" d="M246.62,164.18c2.24.35,3.72,1.73,3.67,3.85a3.4,3.4,0,0,1-3.75,3.59c-2.14-.09-3.19-1.28-3.19-3.41S244.26,164.5,246.62,164.18Z" transform="translate(-9.67 -4.86)"/><path class="b" d="M247,119.61c2.13.44,3.49,1.77,3.55,3.89.07,2.29-1.42,3.48-3.67,3.49s-3.61-1.36-3.43-3.62C243.59,121.37,244.55,119.71,247,119.61Z" transform="translate(-9.67 -4.86)"/><path class="c" d="M306.83,304.86c-12.58-.53-20.87-7.27-25.13-18.6-4.41-11.74-.78-21.94,8.33-30.06a9.06,9.06,0,0,0,3.29-7.68q-.13-65-.09-130c0-7.64,4.26-13.3,11-14.84,8.57-2,15.09.86,18.61,8.07a10.09,10.09,0,0,1,1.18,4.55q-.14,24.94-.2,49.88c-3.12.68-5.59-2.07-8.67-1.62a19.48,19.48,0,0,0-4.36-1.59c-5.58.54-7.59,2.37-8.29,7.64a48.22,48.22,0,0,0-.18,6.36c0,24.55-.09,49.11.07,73.66,0,5.36-1.34,9.27-5.93,12.63-7.34,5.36-8.06,16.29-2.42,25.37a54.63,54.63,0,0,0,4.8,5.18,10.75,10.75,0,0,1,1,1.12,10.15,10.15,0,0,1,.88,1.19c1.15,2.05,3,3.45,4.68,5C306.45,302,308.21,302.89,306.83,304.86Z" transform="translate(-9.67 -4.86)"/><path class="d" d="M315.43,164.19c3.48-2.32,5.63,1,8.36,1.95,0,27.25.14,54.5.08,81.75,0,3.74.81,6.43,3.82,9.12,9.24,8.24,11.4,20.12,6.48,32-3.82,9.22-15.82,16.17-27.34,15.84-1.19-4-7-4.29-7.19-9.08,3.24-1.55,6.6-.22,9.9-.35,7.92-.32,13.46-4,16.34-11.26,3.17-8,2.35-14.47-4.38-19.54-5.62-4.24-7.06-9.16-6.51-15.52.26-3-.06-6,.16-9a19.54,19.54,0,0,0,.08-6.43,32.25,32.25,0,0,1,.15-8.27,12.73,12.73,0,0,0-.13-5.56,38,38,0,0,1,0-8.33,13.94,13.94,0,0,0,0-6.36,26.21,26.21,0,0,1,.12-7.4,12.35,12.35,0,0,0-.14-5.51,39.82,39.82,0,0,1,0-8.24,14.8,14.8,0,0,0,0-5.51,32.71,32.71,0,0,1,.08-7.91C316.2,168.47,314.74,166.31,315.43,164.19Z" transform="translate(-9.67 -4.86)"/><path class="c" d="M78.67,288.51l-16.44.24c-.53,0-1.24.13-1.56-.14-4.64-4-1.28-9.2-2-13.79-.44-2.71,1.78-3.5,4.22-3.43,6.29.18,12.64-.35,18.84,1.24a31.71,31.71,0,0,0-1.52,11.08A6.64,6.64,0,0,1,78.67,288.51Z" transform="translate(-9.67 -4.86)"/><path class="c" d="M130.66,288.41c-5.1.12-10.19.25-15.29.34-.88,0-2.11.25-2.57-.22-3.9-4-.82-8.93-1.59-13.39-.36-2,.9-3.72,3.42-3.7,6.09.05,12.2-.32,18.23,1.07,1.91.44,2.09,1.54,1.9,3.07-2.68.66-2.62,2.7-2.67,4.88C132,283.16,132.81,286.07,130.66,288.41Z" transform="translate(-9.67 -4.86)"/><path class="c" d="M234.76,288.4c-5.48.08-11,.05-16.44.31-3.17.15-3.9-1.24-3.81-4.09.43-15-2.24-13.13,12.74-13.11,2.52,0,5.26-1.07,7.61.84C236.61,277.71,235.55,283.05,234.76,288.4Z" transform="translate(-9.67 -4.86)"/><path class="c" d="M182.74,288.46c-5.65.12-11.3.25-17,.33-.69,0-1.78,0-2-.39-2.61-4.56-1.2-9.56-1.09-14.34.07-3.16,3.21-2.8,5.43-2.59,4.85.44,9.86-1.23,14.54,1.13A37.2,37.2,0,0,1,182.74,288.46Z" transform="translate(-9.67 -4.86)"/><path class="c" d="M130.92,316H111.53c0-4.2.09-8.41,0-12.61,0-3.06,1.18-4.46,4.38-4.39,17.65.38,15-2.32,15,14.37C131,314.28,130.94,315.15,130.92,316Z" transform="translate(-9.67 -4.86)"/><path class="c" d="M182.8,316H163.46v-9.52a15.52,15.52,0,0,1,0-2.64c1.55-9.27,8.71-3.24,13.13-4.6,3.19-1,6.43-.2,6.21,4.6C182.62,307.92,182.79,312,182.8,316Z" transform="translate(-9.67 -4.86)"/><path class="c" d="M369.51,289.44c0,7.92-4.16,10.79-11.49,8.41a2.29,2.29,0,0,1-1.75-2.28c-.12-1.4-.07-2.82-.09-4.23-.12-8.93,2.17-10.89,11-8.94C371.85,283.44,368.29,287.49,369.51,289.44Z" transform="translate(-9.67 -4.86)"/><path class="d" d="M182.74,288.46a30.47,30.47,0,0,1-.07-15.86c.52-.08,1.19-.4,1.55-.19,5.73,3.36,1.52,8.75,2.53,13.11C187.45,288.52,185.19,289,182.74,288.46Z" transform="translate(-9.67 -4.86)"/><path class="d" d="M234.76,288.4c-1.88-5.36-.51-10.7.1-16,3-.35,4.59.63,4.28,4a50.85,50.85,0,0,0,0,8.37C239.36,288.17,237.87,289.16,234.76,288.4Z" transform="translate(-9.67 -4.86)"/><path class="d" d="M78.67,288.51c0-3.53.16-7.08-.11-10.59-.2-2.68.73-4.33,3.13-5.29,2.91,4.79,1.22,10,1.07,15C82.7,289.36,80.18,288.67,78.67,288.51Z" transform="translate(-9.67 -4.86)"/><path class="d" d="M130.66,288.41c0-3.53.14-7.07-.12-10.58-.31-4.3,1.56-3.87,4.22-2.25.06,3,0,6,.22,8.95C135.21,287.82,133.93,289.16,130.66,288.41Z" transform="translate(-9.67 -4.86)"/><path class="c" d="M251.28,53.73c-2.09-.1-3.5-1.27-3.43-3.26s1.68-3.08,3.66-3a3,3,0,0,1,3.1,3A3,3,0,0,1,251.28,53.73Z" transform="translate(-9.67 -4.86)"/><path class="d" d="M320.55,28.36c1.56.39,2.39,1.18,2.25,2.59a2.27,2.27,0,0,1-2.37,2.23c-1.67,0-1.77-1.32-1.78-2.56C318.65,29.22,319.24,28.35,320.55,28.36Z" transform="translate(-9.67 -4.86)"/><path class="e" d="M293.68,290.57c-8.46-9.12-6.59-24.25,4-29.92,3.06-1.64,3.13-3.81,3.12-6.51q0-39.76,0-79.53a24.9,24.9,0,0,1,.79-7.87c1.76-5.39,5.47-7,11.07-4.65.88,1.87-.31,3-1.61,3.85-1.62,1.1-2.39,2.41-1.75,4.36a31.33,31.33,0,0,1,.15,7.8,7.8,7.8,0,0,0,.19,4.46c1.23,3.48-.36,6.95,0,10.43a41.64,41.64,0,0,1,0,4.18,67.44,67.44,0,0,1-.14,8.29,9.9,9.9,0,0,0,.06,5.18c1.39,3.21.19,6.51.34,9.76-.13,1.54-.34,3.08-.32,4.64-.13,3.23,1,6.45.16,9.69.1,1.41-.12,2.81-.08,4.23.63,4.91,1.46,9.8.29,14.77-1.11,4.77,1.9,6.88,5.59,9,6.92,3.87,9.29,10.12,7.43,18.1a16,16,0,0,1-14.78,12.38A28,28,0,0,1,293.68,290.57Z" transform="translate(-9.67 -4.86)"/><path class="f" d="M293.68,290.57c4.6-.46,9,1.37,13.63,1.1,7.11-.41,12.81-4.75,14.36-11.64,1.67-7.42-1.27-14.21-8.3-16.79-4.4-1.61-6.14-4.05-5.15-8.2,1.34-5.63.26-11.15,0-16.72,3-2,5.75-1.49,8.18,1.1.09,2.81.38,5.64.21,8.44-.38,6.42.13,11.79,6.51,16,7,4.67,7.47,12.29,4.82,19.94-2.76,8-8.7,12.12-16.83,13.25-3.87.55-7.68-.33-11.43-1.31v0a10.53,10.53,0,0,0-1.19-.89Z" transform="translate(-9.67 -4.86)"/><path class="a" d="M307.92,169.55c-1.33-2.24-.55-3.77,1.78-4.35,1.78-.44,2.85-1.23,2.91-3.12a5,5,0,0,1,2.82,2.11c.7,1.79,3.15,3.2,1.2,5.56C313.66,172.62,310.79,171.16,307.92,169.55Z" transform="translate(-9.67 -4.86)"/><path class="a" d="M312.94,152.13c1.82.53,4.68-.78,4.75,2.06.08,3.13-2.92,2.25-4.81,2.4s-4.48,0-4.4-2.46C308.57,151.33,311.42,152.64,312.94,152.13Z" transform="translate(-9.67 -4.86)"/><path class="a" d="M313.53,131.4c-1.91-.39-4.93.87-4.91-2.38,0-2.8,2.77-2,4.55-2.08s4.4-.51,4.58,2.19C318,132.32,315.09,130.9,313.53,131.4Z" transform="translate(-9.67 -4.86)"/><path class="a" d="M313.51,139.46c1.52.37,4.11-.78,4.18,1.82.09,3.18-2.76,2.47-4.74,2.54s-4.61.31-4.51-2.21C308.55,138.55,311.6,139.85,313.51,139.46Z" transform="translate(-9.67 -4.86)"/><path class="d" d="M298.45,294.91c.63,0,1.08.21,1.19.89Z" transform="translate(-9.67 -4.86)"/><path class="f" d="M308.18,193c-1.1-3.53,2.1-7.17-.26-10.68,3.13-2.44,5.93-1.56,8.57.87l0,9.61C313.79,195,311,194.86,308.18,193Z" transform="translate(-9.67 -4.86)"/><path class="f" d="M308.31,234.51c1-3.33-.69-6.6-.21-9.92,2.89-1.94,5.72-2.25,8.47.28l-.09,9.41C313.82,236.38,311.08,236.25,308.31,234.51Z" transform="translate(-9.67 -4.86)"/><path class="f" d="M307.92,169.55c2.92-.66,5.78,1.28,8.71.2-.05,3.05-.09,6.09-.14,9.14-2.71,2.25-5.5,2.24-8.36.28Z" transform="translate(-9.67 -4.86)"/><path class="f" d="M309,220.33c-2-3,1.55-6.58-.91-9.56,2.86-2.05,5.66-2.08,8.36.32v9.29C314,222.46,311.48,222.46,309,220.33Z" transform="translate(-9.67 -4.86)"/><path class="f" d="M308.1,206.75l.17-9.91c2.81-1.83,5.58-1.93,8.29.24l-.2,8.72C313.75,207.34,311,208,308.1,206.75Z" transform="translate(-9.67 -4.86)"/><path class="a" d="M308.1,206.75a19.63,19.63,0,0,1,8.26-.95,4.37,4.37,0,0,1,.1,5.28l-8.36-.31C306.89,209.43,306.72,208.09,308.1,206.75Z" transform="translate(-9.67 -4.86)"/><path class="a" d="M308.31,234.51l8.17-.23c1.25,1.74.73,3.45-.12,5.14l-8.18-1.1C308.22,237.05,308.26,235.78,308.31,234.51Z" transform="translate(-9.67 -4.86)"/><path class="a" d="M309,220.33l7.45,0c.91,1.47,2,2.94.11,4.48l-8.47-.27C307.74,223,307.61,221.52,309,220.33Z" transform="translate(-9.67 -4.86)"/><path class="a" d="M316.56,197.08l-8.3-.24c0-1.29-.05-2.57-.08-3.86l8.34-.2C317.32,194.21,317.85,195.63,316.56,197.08Z" transform="translate(-9.67 -4.86)"/><path class="a" d="M308.13,179.17l8.36-.28c1.09,1.43,1.43,2.85,0,4.28-2.88,0-5.62-1.46-8.57-.87C306.32,181.14,307.42,180.17,308.13,179.17Z" transform="translate(-9.67 -4.86)"/><path class="c" d="M306,267.8c-.68.88-1.31,1.67-1.92,2.47-1.37,1.81-2.81,3.56-4.06,5.44-1.13,1.71-1.85,4.33-4.56,2.9s-2-3.59-.74-5.85a22,22,0,0,1,5.7-6.75C302.82,264.16,304.53,265.28,306,267.8Z" transform="translate(-9.67 -4.86)"/></svg>