<svg xmlns="http://www.w3.org/2000/svg" viewBox="0 0 352.23 348.36"><defs><style>.a{fill:#1c2e37;}.b{fill:#fce4d0;}.c{fill:#c93502;}.d{fill:#fb4b09;}.e{fill:#f8e8d8;}.f{fill:#f8e7d6;}.g{fill:#f9e5d0;}.h{fill:#f94c09;}.i{fill:#a83618;}.j{fill:#f4f0eb;}.k{fill:#a93715;}.l{fill:#a6978b;}.m{fill:#f7e4d3;}.n{fill:#47241c;}.o{fill:#de642c;}.p{fill:#80311c;}.q{fill:#fb4c09;}.r{fill:#da6933;}.s{fill:#dd6230;}</style></defs><title>FIRE</title><path class="a" d="M182.68,361.54c-49.15-1.74-95.06-23.78-130.77-65.87C24.48,263.34,10.67,225.4,12.22,182.79,14,133.31,34.13,92,71.16,59.26c28.19-24.92,61.22-39.75,98.6-44.66a155.85,155.85,0,0,1,73.38,7.55c62.69,22.3,102.17,66.27,117,130.89,10.15,44.2,1.5,86.3-22.48,124.66-25.9,41.42-62.83,68.23-110.55,79.66C214.59,360.36,201.8,361.31,182.68,361.54Z" transform="translate(-12.1 -13.18)"/><path class="b" d="M81,78.85A151.94,151.94,0,0,1,127.6,47.91a175.72,175.72,0,0,1,40.09-11.64c4-.65,5.51-.07,5.42,4.46-.15,8.07-.73,16-3.94,23.46-1.84,4.3-4.48,6.83-9.57,8.19-42.54,11.35-72.88,36.9-85.88,79.53-10.49,34.37-7.27,68.11,12,99.4,1.81,2.95,4.07,5.62,6.4,8.8l39.34-40.54q30.09-31,60.16-62,31.5-32.43,63.13-64.71c2.37-2.41,2-3.14-.57-4.9a113.17,113.17,0,0,0-24.22-12.73c-3.19-1.18-5.1-2.72-6.28-6.14-4.37-12.62-11.15-23.74-21.8-32.18-.32-.25-.41-.8-.79-1.62,14.82,1,28.6,4.68,42.24,9.52,19.81,7,36.68,18.5,52.17,32.41,2.9,2.6,2.5,4.13,0,6.65Q271.11,108.5,247,133.41c-17.72,18.28-35.26,36.72-53,55-19,19.57-38.25,38.95-57.29,58.5-17.4,17.87-34.68,35.86-52.21,54-18.7-17.56-32.85-37.83-41.7-61.9-12.78-34.77-12.21-69.32.34-103.91a5.31,5.31,0,0,1,.85-1.19c6.6-5.77,10.57-13.6,15.62-20.54,3.21-4.41,6-9.06,9.62-13.26C74.51,93.83,76.24,85.5,81,78.85Z" transform="translate(-12.1 -13.18)"/><path class="b" d="M194.91,340.46c-32.25.37-57.65-6.82-81.28-20.77-4.43-2.62-9-4.95-13.21-8-1.73-1.25-2.63-2.11-.61-4.1q10.16-10,20-20.28c1.58-1.66,2.52-1.15,4.13-.14,35.28,22.22,72.39,26.63,111.47,11.26,19-7.49,34.32-19.67,47.05-35.68,21-26.43,27.95-56.61,24.36-89.39-2.06-18.81-7.53-36.84-19.43-52.18-2.25-2.91-2.28-4.92.49-7.38A170.79,170.79,0,0,0,305.51,95.5c2.85-3.44,4.43-2.39,6.62.59a154.29,154.29,0,0,1,24.75,51.37c10.58,38.83,6.08,76-12.47,111.68a149.83,149.83,0,0,1-49.8,55.49C249.32,331.74,221.18,341.35,194.91,340.46Z" transform="translate(-12.1 -13.18)"/><path class="c" d="M230.37,281.07c-4.59,3.15-10.09,4.17-15.25,5.5-6.33,1.63-12.88,3-19.63,2.73-3.57-.13-4.84-1.31-4.47-4.7.93-8.67,5.83-15.29,11.27-21.56,3-3.49,6.48-6.61,9.72-9.92,8.22-8.4,9.37-24.56,3.07-34.16-2.08-1.6-3.22-5.78-6.15-4.47-2.21,1-.66,4.78-.91,7.31-.21,2.08.35,4.27-.94,6.19a28.55,28.55,0,0,1-7,12.87C194.51,247,188.86,253,183.23,259s-7.85,13.24-8.12,21.17c-.24,7.21-1.85,8.52-8.8,6.54-8.66-2.48-16.82-6.23-25-9.81-6.22-2.71-6.44-4-1.85-8.68,18.31-18.6,36.94-36.87,54.9-55.79q27.8-29.27,56.16-58c1.15-1.16,2.43-2.2,3.65-3.3,2.24,1,2.19,3.14,2.54,5.07a69.77,69.77,0,0,1-.28,24.75c-2.22,8.09-4.77,16-11.21,22L241,208c-1.26,2.3-5.77,4.65.07,6.87,5.94,1.85,11.91.44,17.87.25,1.51,5.77-.91,11-2.38,16.32a146.61,146.61,0,0,1-16.14,36.65C237.79,273,235.14,277.84,230.37,281.07Z" transform="translate(-12.1 -13.18)"/><path class="d" d="M134.21,169c1.4,4.73,5.47,5,9.18,4.79s6.83-2.1,7.88-6.29a26.82,26.82,0,0,0,.68-7.87c1.2-2.15,1.11-4.45.8-6.79-2.74-20.84,6.43-37,20-51.54a4.54,4.54,0,0,1,1.68-1,3.5,3.5,0,0,1,2.17.08c.49-.37.76,1.73,1.24.15.13-.42-.34-1.14-.28-1.77,1.25-3.45,4-6.25,4.22-10.14,2.18-5.37,4.15-10.83,6.56-16.1,1.08-1.16,1.07-2.74,1.6-4.1.94-2.4,2.14-4.63,5.42-3.6,7.47,8,10.34,18.12,12.86,28.31a64.19,64.19,0,0,1,2.23,16.29c0,2.36-.12,4.67-1.52,6.7l-20.1,20.79c-3.58,2-4.08-1.08-4.51-3.14A39.44,39.44,0,0,1,184.5,116c.35-1.4,1.17-2.71,1-4.6-2.91.54-4.49,2.35-5.87,4.41-6.13,9.11-6.88,18.82-3.17,29,.49,1.34,1.71,2.6.52,4.15-12.13,12.7-24.21,25.45-36.42,38.08-3.2,3.31-5.76,7.24-9.57,10-2.41,2.35-4.15.8-5.86-1-4.18-4.42-5.19-10.26-7-15.8-4.75,5.69-4.92,15-.48,22.59,1.13,1.92,3.16,3.68,1.33,6.25l-18.6,19.58c-3.5-1.43-3.2-4.81-3.65-7.6-1.89-11.67.12-22.82,4.93-33.53,2.11-4.71,4-9.49,6.12-14.2A64,64,0,0,0,113,143.63c-.09-1.65-.57-3.71,1.17-4.49,2-.9,3.44.91,4.52,2.3a69,69,0,0,1,9.51,15.18A114.6,114.6,0,0,0,134.21,169Z" transform="translate(-12.1 -13.18)"/><path class="e" d="M189.07,73A91.91,91.91,0,0,1,183,89c-2.47,4.14-4.42,8.63-8,12-9.17,10.56-18.47,21-20.53,35.7-.88,6.31-1.41,12.6.13,18.84.63,2.59-.27,3.7-2.64,4.11-12.35-18.52-3.31-39.91,8.14-54,5.86-7.21,12.47-13.83,17.29-21.86,9.16-15.25,10.18-18.33,11.87-35.83A23.06,23.06,0,0,1,196,53.76c11.65,13.84,18.09,29.9,21,47.7,1.2,7.49-3.86,10.61-8,14.67.44-18.45-4-35.55-14.15-51.07-1.49-1.47-2.18-.8-3.31.71C189.83,68,190.75,70.92,189.07,73Z" transform="translate(-12.1 -13.18)"/><path class="f" d="M134.21,169c-4.29-2.54-5.05-7.32-7-11.29-3.26-6.67-6.81-13.08-13.36-19,2.7,18.15-3.31,33.1-10.31,48-5.56,11.8-7.89,24.26-4.68,37.27.39,1.6,1,3.12,1.57,4.68l-5.67,6.14c-8-18.89-6.4-36.46,3.53-53.31,5.6-9.49,10.78-19,12-30.22,1-9.71-.86-18.78-4.87-27.68C117.55,126,136.65,145.17,134.21,169Z" transform="translate(-12.1 -13.18)"/><path class="g" d="M230.37,281.07l8.79-12.76c3.42-4.3,7.8-7.61,11.78-11.34,12.35-11.58,21.59-25,25.33-41.79,1.82-4.19,1.34-8.6,1.22-13a12.86,12.86,0,0,1,.43-5.27,59,59,0,0,0,4.29-19.54c4.37,6.79,5.58,13.33,5.7,19.94.41,23-7.79,42.57-23.44,59.44C254.7,267.31,243.77,275.82,230.37,281.07Z" transform="translate(-12.1 -13.18)"/><path class="h" d="M277.09,216.25C276,225.79,271,233.64,266,241.47c-7,10.92-16.23,19.55-26.82,26.84,2.29-6.82,7.1-12.33,9.69-19,4.3-11.12,8-22.38,10.12-34.14,5.41-2.28,9.41-6.47,13.76-10.18,1.36-.66,2-3.15,4-2.05,1.76.94,1.16,2.92,1.24,4.51A29.2,29.2,0,0,1,277.09,216.25Z" transform="translate(-12.1 -13.18)"/><path class="i" d="M177,149c-6.82-12.28-5.44-24,2.32-35.36a6.4,6.4,0,0,1,2.06-2.11c2-1,4.3-3.5,6.26-2.07,1.75,1.29-.65,3.68-1.26,5.44-2.23,6.38-1.67,12.69-.57,19.11.33,1.89.86,3.2,3.07,2.95Z" transform="translate(-12.1 -13.18)"/><path class="j" d="M81,78.85c0,1,.34,2.27-.14,2.93-5.23,7.15-7,16.17-13.53,22.82-5.09,5.2-8.39,12.12-12.69,18.13-3,4.19-5,9.45-10.63,11.16,5.52-16.28,14.44-30.55,25.73-43.4C73.25,86.43,76.55,82.1,81,78.85Z" transform="translate(-12.1 -13.18)"/><path class="k" d="M119,209c-1.18-4.95-4.91-8.77-5.65-14-.92-6.52.7-13.7,5.15-17.48,1.52,4.44,2.59,9,4.62,13,1.52,3,2.63,7.51,7.84,6.47A87.8,87.8,0,0,1,119,209Z" transform="translate(-12.1 -13.18)"/><path class="l" d="M255.13,182c1-9,1.82-18-.14-27-.28-1.28-.57-2.55-.86-3.83l7.19-8.32a58,58,0,0,1,3.54,18.21c-.75,6-3.06,11.42-5.46,16.83C258.58,179.77,258,182.16,255.13,182Z" transform="translate(-12.1 -13.18)"/><path class="m" d="M255.13,182c4.18-4.71,5.21-10.93,7.84-16.39.71-1.46,1.26-3,1.89-4.51,1.89,17.14-2.05,31.74-17.86,41.19a12.13,12.13,0,0,1-1.82.73A103.66,103.66,0,0,0,255.13,182Z" transform="translate(-12.1 -13.18)"/><path class="n" d="M207.08,228c-.07-4.66-.17-9.32-.19-14,0-.78,0-1.89.52-2.28,1.07-.89,1.75.39,2.43,1,2.1,1.78,4.81,3.07,5.24,6.26-2.39-.05-3-2.88-5.32-3.41C207.35,219.43,211.34,224.64,207.08,228Z" transform="translate(-12.1 -13.18)"/><path class="o" d="M277.09,216.25a71.17,71.17,0,0,1,0-8.39c.46-4.15-1.11-4.61-4.35-2.9,1-3.15,3.32-5.45,5.19-8C279.62,203.46,279.93,209.92,277.09,216.25Z" transform="translate(-12.1 -13.18)"/><path class="p" d="M241.1,214.89c-1.56,0-3.64.73-3.92-1.68-.31-2.73,1.85-4,3.85-5.19C240.81,210.31,238.29,212.63,241.1,214.89Z" transform="translate(-12.1 -13.18)"/><path class="q" d="M187,124.79c1.63-2.31-.26-7.64,5.67-8.38,1.23-.15,2.1-1.58,2.21-3s-.47-2-2-2c-1.91,0-1.83-1.61-1.87-2.92-.07-2.23-1.18-3.06-3.36-3.49-4.09-.8-4.87-3.46-2.19-6.62.42-.5,1.45-1.09,1.37-1.32-1.9-4.93,1.57-7.7,4.15-10.88.59-.73.62-1.89,1.17-2.65s1.48-2.15,2.71-2c1.58.26.95,1.83,1.14,2.9.25,1.36-.76,3.56,1,3.89,2.09.4,1.8-1.83,2-3.23.15-1.12.51-2,1.88-1.52,1.17.41,2.28,1.15,2,2.5-1.5,7.48,4,15.9-3,22.62a2.42,2.42,0,0,0-.27.41c3.93,2.27.23,6.19,1.93,8.9.73,1.16,2,2.19,0,3.15-2.27,1.11-6,.54-5.05,5.08.16.72-1.35.2-2-.23-1.21-.78-2.16-.15-2.21.89-.08,2,.14,3.73-2.76,3.05C187.1,129.37,187,127.61,187,124.79Z" transform="translate(-12.1 -13.18)"/><path class="q" d="M167.79,156.24a34.41,34.41,0,0,0-1.44-4.09,1.8,1.8,0,0,0-2.13-.88c-1,.25-1.19,1.1-1.16,1.93a33.61,33.61,0,0,1,.31,3.43c-.15,2.15-1.94,2.79-3.57,2.68-2.23-.15-1.82-1.89-1.26-3.37a23.14,23.14,0,0,1,1.61-3.59c1.69-2.82,3.23-5.44-.22-8.26-1.54-1.26-1.65-4.16-.5-5,4.91-3.68,4.1-8.92,4.6-13.87.15-1.46.34-2.94,2.25-3.8,2.79,6,1.45,12.79,4.39,18.67.88,1.76,2.09,3.56,2.44,5.81C173.83,150.54,169.92,152.35,167.79,156.24Z" transform="translate(-12.1 -13.18)"/><path class="r" d="M175,101a46.92,46.92,0,0,1,8-12c-.21,4.06-2.27,7.2-5,10-.54.56-.19,1.58-1,2Z" transform="translate(-12.1 -13.18)"/><path class="s" d="M189.07,73c.73-3.9,1.45-7.81,2.24-12.08a6.75,6.75,0,0,1,3.51,4.11c-2.4.85-3.81,2.43-3.79,5.08C191,71.54,190.83,72.81,189.07,73Z" transform="translate(-12.1 -13.18)"/><path class="q" d="M177,101a2,2,0,0,1,1-2,11.49,11.49,0,0,0,1,1.07c1.41,1.14.78,2.32.11,3.51-.35.62-1,1.19-1.54.69C176.63,103.42,177.11,102.1,177,101Z" transform="translate(-12.1 -13.18)"/><path class="q" d="M171.05,119.92c0-1,.27-2.13,1.43-2.23.86-.08,1.35.79,1.38,1.7a1.93,1.93,0,0,1-1.54,2.18C171.28,121.73,171.07,120.79,171.05,119.92Z" transform="translate(-12.1 -13.18)"/></svg>