<svg xmlns="http://www.w3.org/2000/svg" viewBox="0 0 319.37 373.84"><defs><style>.a{fill:#00356b;}.b{fill:#2bbbfe;}.c{fill:#33bafc;}.d{fill:#fbfdfc;}.e{fill:#1f94db;}.f{fill:#1d95de;}.g{fill:#2ebbfd;}.h{fill:#2bbafd;}.i{fill:#35b7f7;}.j{fill:#e2fbfa;}.k{fill:#e1fbfa;}.l{fill:#dff8fa;}.m{fill:#dff8f9;}.n{fill:#50b9e9;}.o{fill:#41baf1;}.p{fill:#f2fcfa;}.q{fill:#27b7ea;}.r{fill:#0b3866;}.s{fill:#0d3864;}.t{fill:#0e3968;}.u{fill:#0f3663;}.v{fill:#1f9fd8;}.w{fill:#193e5c;}.x{fill:#1f486b;}.y{fill:#d8f0f6;}.z{fill:#53bce4;}.aa{fill:#2bb8ed;}.ab{fill:#113454;}.ac{fill:#133753;}.ad{fill:#153f61;}.ae{fill:#143a5e;}.af{fill:#133557;}.ag{fill:#d1ebf5;}.ah{fill:#bddbe9;}.ai{fill:#eefafa;}.aj{fill:#ddf4f5;}</style></defs><title>STOP THE SMOKE</title><path class="a" d="M81.28,365.27c-35.92-11.86-64.52-44.6-63.13-85.74.6-17.8,7-33.66,16-48.73,8-13.39,13.94-27.57,16.41-43.06,1.22-7.61.75-15.3.54-22.94-.68-24.77,2.88-48.75,12.83-71.57a130,130,0,0,1,38.92-51c6.68-5.28,13.35-10.47,21-14.33C157,11,190.9,9.64,225.33,24.09A56.9,56.9,0,0,1,231,27.24c3,6.7,1.36,13.49-.3,20-4.85,19.05-15.33,34.73-29.46,48.3-8.65,8.31-18.62,14.46-29,20.14a23.35,23.35,0,0,0-5.75,3.93c-1.38,1.41-2.18,3.08-1.12,5s3,1.87,4.86,1.34a75.12,75.12,0,0,0,11.91-5.12c15.11-7.48,29.67-15.92,41.18-28.57,11.78-12.93,19.39-27.76,19.35-45.76a59.48,59.48,0,0,0-.78-6.93c-.21-1.68-1.25-3.63.85-5,29.15,18.9,47,45.8,56.2,78.95,4.29,15.5,6.71,31.23,5.51,47.31-1.94,25.82,4.64,49.29,18.11,71.23,10.77,17.54,16.49,36.51,14.56,57.44A81.52,81.52,0,0,1,321.7,331a94.55,94.55,0,0,1-43.51,33,39.13,39.13,0,0,1-4.32,1.13c-6.57-1.22-11-6.12-15.74-10-15.95-13.15-27.25-29.44-30.58-50.4-1.93-7.39-.6-14.93-1-22.39-.16-2.77,1-6.5-1.55-7.95-2.72-1.56-5,1.77-7.25,3.24-20.65,13.48-42.32,17.23-65.5,7.16-5.83-2.53-11-6.21-16.42-9.49-1.76-1.07-3.52-3.68-5.53-2.44-1.84,1.14-.82,4-.86,6.12-.09,5.16,0,10.32,0,15.49-1.18,16.08-5.83,30.71-15.72,43.89a99.8,99.8,0,0,1-27,24.75C85,364.2,83.49,365.59,81.28,365.27Z" transform="translate(-18.1 -14.15)"/><path class="b" d="M81.28,365.27c2.73-1.89,5.41-3.85,8.2-5.65a85.09,85.09,0,0,0,33.92-41.79c2.84-7.33,3.84-15.09,4.75-22.84.82-5,.08-9.95.4-14.92.08-1.37-.91-3.35.85-4s3.14.93,4.13,2.21a72.47,72.47,0,0,0,12.86,12.5c14.48,11.38,30.6,18.76,49.24,19.74,9.15.48,17.83-1.77,26.27-5.08,2.27-.89,4.53-2.48,7-.42,2.34,16.84,11.52,30.05,22.37,42.4,4.88,5.56,11.26,9.21,17,13.63,1.83,1.41,3.72,2.74,5.59,4.11-6.28,4.59-13.62,6.95-20.8,9.5-14.16,5-28.57,9.12-43.56,11.17a257.21,257.21,0,0,1-47.23,1.82c-11.81-.56-23.42-2.66-34.91-5C118,380.73,109.09,376.93,100,374,93.4,371.81,87,369.23,81.28,365.27Z" transform="translate(-18.1 -14.15)"/><path class="c" d="M242.72,34.54C245,47.07,244.26,59.31,239,71.06,232,86.53,220.89,98.4,207.09,108a187.72,187.72,0,0,1-34.18,18.43c-1.07.45-2.2.76-3.29,1.15-2.63.95-4.6-.13-6-2.24s-.71-4.34.87-5.93a23.89,23.89,0,0,1,6.46-4.59c22.57-11.17,40.19-27.5,51.88-50A72.19,72.19,0,0,0,231,27.24C235.45,28.76,239,31.84,242.72,34.54Z" transform="translate(-18.1 -14.15)"/><path class="d" d="M252.28,227.06a79.66,79.66,0,0,1-10,14.59c-15.45,17.74-33.44,31.25-57.52,34.76-11.66,1.7-22.78-1.19-33-5.73a101.3,101.3,0,0,1-43.8-36.56c-.71-2-1.37-3.91,1-5.32a3.16,3.16,0,0,1,1.4-.16c2.37.47,2.26-1.23,2.31-2.71.11-3.28,0-6.56,0-9.86.18-6.18.65-12.32,2.5-18.27,1.92-2.61,1.58-5.59,1.31-8.53-.41-4.62.26-5.44,5-5.64,2.95-.13,5.91,0,8.87-.06,1.63,0,3.32.15,4.6-1.22a8.64,8.64,0,0,1,4.47-2.08c10.2-1.71,19.1-6.67,28.15-11.25,6-3.05,12.33-4.91,18.64-1.53a171.81,171.81,0,0,0,37,14.69c4,2.47,8.33,1.15,12.52,1.37,3.42.19,5.75,1.2,5.83,5,.19,1.38-.07,2.77.05,4.14.46,10.43,2.41,20.71,3.19,31.11.2,2.64,1.63,2.94,3.74,2.09C249.86,225.76,251.24,225.82,252.28,227.06Z" transform="translate(-18.1 -14.15)"/><path class="b" d="M222,182.94a115,115,0,0,1-34.92-13.62c-6-3.48-12.47-2.74-18.13.41a125.38,125.38,0,0,1-33,13.18c-5.73,2.06-11.66,1.6-17.56,1.39-1.22,0-2-1-2.81-1.91q-7.31-8.49-15-16.59c-1.53-1.59-3.38-3.34-2.55-6.06,4.09-2.19,8.5-1.13,12.75-1.11,31.09.09,60.44-7.38,88-21.31C213.15,130,226.65,121,236.86,108c1.41-1.8,2.86-4.4,6-3a109.19,109.19,0,0,0,9,30.76c2.14,4.7,5.36,8.67,8.21,12.9,2.56,4.2.51,8.07-.87,12-5.56,8.07-12.35,15.11-19,22.32a4.45,4.45,0,0,1-3.61,1.46C231.78,184,226.76,184.68,222,182.94Z" transform="translate(-18.1 -14.15)"/><path class="e" d="M242.91,105c-2.49.16-3.81,2.11-5,3.78-7.24,10.09-17.36,16.75-27.46,23.42-23.16,15.3-49.41,21.95-76.26,26.65-12,2.11-24.18.78-36.27,1.28a46.56,46.56,0,0,1-9.78-3.1c-2.71-2.08-2.75-4.92-1.68-7.65,1.15-2.91,4-2.43,6.5-2.4,17.8.25,35.54,0,53.07-3.89,29.16-6.43,56.08-17.4,78.75-37.44,5.54-4.9,9.75-10.88,14.36-16.55.81-1,1.19-2.46,3.77-2.83Z" transform="translate(-18.1 -14.15)"/><path class="f" d="M228.88,305c-4.92-.36-8.74,2.85-13.15,4.18-22.13,6.63-41.92.8-60.72-10.64-8.52-5.19-16.48-11.17-22.43-19.42a19.74,19.74,0,0,0-3.09-2.72c-1.29,6.48.77,12.68-1.34,18.57,0-7.31,0-14.63,0-21.94,0-1.24-.61-2.92.91-3.57,1.19-.51,2,.88,3,1.49,7.86,5.28,15.59,10.71,24.57,14.06,21.8,8.13,41.73,3.52,60.57-8.75.69-.45,1.35-1,2.07-1.38,2.24-1.32,4.59-4.59,6.73-3.39,2.5,1.4,1.7,5.27,1.81,8.19C228.1,288.14,227.28,296.63,228.88,305Z" transform="translate(-18.1 -14.15)"/><path class="g" d="M247.65,226.83c-.74,1-1.11,2.57-2.71,2.5-1.43-.07-1.12-1.43-1.22-2.3-1.3-11.32-3.09-22.59-3.61-34,1.24-3.69,4.7-5.51,7-8.29a218.63,218.63,0,0,1,15.5-17.53,6.79,6.79,0,0,0,1.95-5.42c.3-.69.66-1.26,1.56-.81,4.93-.39,10.64,3.19,11.62,8.65,2,11.21,2.91,22.35-5.22,32.21-3.65,4.42-8.84,4.89-13.32,7.17-3.26,1.52-4.75,4.25-5.91,7.55C252,220.24,251.28,224.39,247.65,226.83Z" transform="translate(-18.1 -14.15)"/><path class="h" d="M92.72,207.08c-8.17-1.74-15.37-11.29-15.77-21-.13-3.31-.07-6.62,0-9.94.07-8.81,4.36-14,13.11-16,4.72,1,6.35,5.25,8.88,8.56.85,4.65,4.43,7,8,9.44,3.59,2.65,6.94,5.5,8.33,10,1.35,8.87-1.81,17.33-2.35,26-.2,3.21-2.89,3.75-8,2.07a4.46,4.46,0,0,1-1.23-1.1C103,208.36,97.67,208,92.72,207.08Z" transform="translate(-18.1 -14.15)"/><path class="i" d="M177,85.9c3.39,0,5.63,1.41,6.7,4.06s0,5-2.29,6.53c-8,5.37-16.19,10.48-23.67,16.62-1.7,1.4-3.71,1.57-5.4-.18s-2.61-4.06-1.14-6.33a24.76,24.76,0,0,1,4.78-5.7c5.64-4.64,11.46-9.06,17.27-13.49A6.07,6.07,0,0,1,177,85.9Z" transform="translate(-18.1 -14.15)"/><path class="j" d="M98,168.91l-8-8.77c-.63-1-1.25-2.06-1.87-3.09,3.76-.55,7.2-.08,9.78,3.1,6.42,7.36,12.88,14.68,19.23,22.1,1.54,1.8,3.43,1.86,5.42,1.72,4.47-.3,8.93-.7,13.39-1.06-.25,2.46-2.13,2.07-3.73,2.09-3.95,0-7.9.08-11.85,0-2.54,0-3.39.58-2.85,3.5.58,3.15,2.07,6.86-1.56,9.48-2.44-3.24.53-7.51-2-10.73l-7.59-8.39A48.29,48.29,0,0,1,98,168.91Z" transform="translate(-18.1 -14.15)"/><path class="k" d="M266.14,161l-1.15.8c-1.14,4.13-5,6.05-7.42,9.18-4.46,5.8-9.43,11.18-14.44,16.51-.81.87-1.51,2.36-3.18,1.32.5-3.29-1.31-3.66-4.1-3.87-4.64-.35-9.72,1.84-13.86-2,2.65.11,5.45-.28,7.93.43,5.89,1.68,9.66-.71,13.17-5.16,4.71-6,9.89-11.56,14.86-17.31,1.75-2.82,3.09-6.06,6.83-6.92C267.7,155.84,268.61,158.09,266.14,161Z" transform="translate(-18.1 -14.15)"/><path class="l" d="M110,229c-2.37,1-2,3.21-2.1,5.16A58.79,58.79,0,0,1,96.87,209.7c2.67-3.51,4.4-1.23,5.84,1.11.75,1.21.51,2.89,1.21,4.22v.06C106.42,219.51,109.41,223.71,110,229Z" transform="translate(-18.1 -14.15)"/><path class="m" d="M247.65,226.83c1.82-4.6,3.87-9.13,5.38-13.83,1.06-3.32,2.9-4.56,6.19-4-1.39,6.37-3.26,12.55-6.94,18Z" transform="translate(-18.1 -14.15)"/><path class="n" d="M264.78,154,258,160.9c.78-4.06,2.85-7.9,2.16-12.22A20.22,20.22,0,0,1,264.78,154Z" transform="translate(-18.1 -14.15)"/><path class="o" d="M103.92,215c-1.67-1.09-1.45-3.15-2.38-4.6-1.18-1.84-2.93-1.64-4.67-.72-.76-1.87-2.88-1.57-4.15-2.63,1.15,0,2.3-.09,3.45-.09C103.17,207,104.11,208,103.92,215Z" transform="translate(-18.1 -14.15)"/><path class="p" d="M136,215c2.69-.07,6,.84,3.78-4.18-.93-2.11,1.57-3.19,3.6-3.65,2.56,4.13,6.1,5.49,10.45,4,1.84-.63,3.34-1.66,3.43-3.78.1-2.28-1.19-3.72-3.22-4.53-1.56-.62-3.29-.46-4.87-1-1.36-.43-2.48-1.21-2.54-2.72s1.29-2.14,2.54-2.68c1.87-.8,3.93-.14,6.4-.69-1.91-2.39-5.19-.71-6.55-3,3.88-2,8.26-.6,12.28-1.73.32.38.58.9,1,1.08,8.71,3.71,6.4,10.78,5.36,17.46-1.4,1.43-3.46,2-4.83,3.42-.73.79-2.32,1.19-1.73,2.65.5,1.21,1.84,1.41,3,1.29,4.33-.42,8.55.85,12.87.63s8.6.08,12.92-.47c-5.32-2-10.38-5.52-16.5-1.68a5.35,5.35,0,0,1-6.14-.25c-1.51-1.17-1.52-2.83-.4-4.42,2.93-.67,4-2.64,3.77-5.48-.07-1.15.06-2.31,0-3.46-.28-4.27.22-8,5.44-9,.94-.18,1.42-1.32,2.15-2,2.41.18,4.86-.81,7.25.25-.09,2-1.86,3-2.84,4.5-2.79,4.19-2.8,8.15,0,11.38a8.74,8.74,0,0,0,10.72,2.37c4.23-2.11,5.69-5.56,4.53-10.73-.28-1.25-1-2.51.11-3.72a4.09,4.09,0,0,0,2.79-.77c5.13-4.52,9.56-4.26,15.21.85-2.56,1.79-5.12.18-7.64-.11s-3.8.58-3.9,3.12c-.1,2.81-.07,5.61,0,8.42a5.56,5.56,0,0,0,.95,3.71,19.72,19.72,0,0,1,8.46-5c2.67-.92,3.8-3,3.22-5.91-.23-1.1-.74-2.23,0-3.34,4,.47,5.68,2.17,3.5,6.25A11.12,11.12,0,0,0,219,208c.12,2.46.15,4.88-3.28,6.27,4,1.33,6.12-2.28,9.24-1.32,2,.62,5-.89,5,3,0,3.06.29,6.17-3.75,7.06-2.45.54-5.07.9-5.19,4.27-.79,2.71-3.59,2.47-5.38,3.72a12.62,12.62,0,0,1-2.62.81c-2.64,0-3.24,4.38-6.5,3.08a7.92,7.92,0,0,0,1.18,6.41c2.41-3.79,6.19.28,9-1.82a6.43,6.43,0,0,1,1.37-.29c2.28-.08,4.59,0,7.21-1.59-3.75.17-6.09-.15-3.44-4.31,1-1.52-.48-4.15.84-6.09,5.45.58,6.87,5.65,7.62,9.16.93,4.34-3.4,6.4-7.58,6.6-3.1.14-4.47,1-3.17,4.22,1,2.45-.38,3.86-1.91,5.62-3,3.48-8.27,1.07-11.12,4.6-6.38-2.08-12.14,2.38-18.43,1.68-9.74-1.09-19.42,1.22-29.27.22a40.5,40.5,0,0,1-18.28-6.8c-2.2-1.42-.63-3.08,1.73-3.31,7.18,4,15.15,5.09,23.09,5.76,15.14,1.29,30.26,1.39,44.94-3.56,1-.35,2.26-.37,3.3-1.84a149.44,149.44,0,0,1-71.35-.37c-.06-.84,0-1.77,1-1.93,4.4-.67,1.51-2.61.78-4.18a3.46,3.46,0,0,1,.85-1.09,8.28,8.28,0,0,0,1.53-1.25c3.36-3.72,4.6-3.58,7.18.86a10.11,10.11,0,0,0,1.48-6.1c-4,1.6-4,1.6-8-3.14-3-1.48-6.71-1.36-9-4.22.69-1.14,2.39-1.84,1.14-3.73-1.15-1.72-2.21-.7-3.38-.29-2.92,1-4.5-.76-5.16-3.08-.57-2-2.43-4.89,1.58-5.89,1.48,2,2.8,3.93,5.58,4.59,27.53,6.48,55,6.62,82.46-.37a11.54,11.54,0,0,0,5.4-2.38c-2-.89-3.64,0-5.21.4-26.43,7.28-52.94,7-79.5.88C139,217.77,136.48,217.86,136,215Z" transform="translate(-18.1 -14.15)"/><path class="q" d="M136,215c9.54,3.84,19.68,5,29.73,5.65,18.67,1.26,37.27.5,55.39-5.12,2.38-.73,6.26-3.29,7.46.37,1.34,4.1-3.51,3.59-5.79,4.29-18.39,5.61-37.25,6.25-56.33,5.39C156,225.12,146,223,135.91,220.94c-3.64-.73-4.94-2.32-3.69-5.84Z" transform="translate(-18.1 -14.15)"/><path class="r" d="M198,195c3,8,2.17,12.36-3,15.21-5,2.74-10.85,1.73-13.88-2.38a11.24,11.24,0,0,1,1.25-14.18,29.69,29.69,0,0,1,3.09-2.45C190.39,189.88,194.54,191.25,198,195Z" transform="translate(-18.1 -14.15)"/><path class="s" d="M149,192.86c2,0,4-.07,5.94.14s3.28,1.29,2.94,3.26-2,2.39-3.87,1.82a7.4,7.4,0,0,0-2.39-.58c-1.59.06-4-.44-4.32,1.38-.36,2.3,2.23,1.69,3.66,2.07,1.59.42,3.34.44,4.8,1.11a5.48,5.48,0,0,1,1.56,9.07c-2.89,3-10.95,2.9-13.89.08-1.53-1.46-.5-2.68-.07-4,3,.58,5.85,3.4,9.46.59-3.68-2.67-10.62-1.26-10.28-8.25C142.73,195.54,145.77,194,149,192.86Z" transform="translate(-18.1 -14.15)"/><path class="t" d="M217,196c3.35,7.12,2.1,9.67-5.68,11.54-1.72.41-3.58.36-3.56,3a2.19,2.19,0,0,1-2.79,2.1c-1.55-.27-2.09-1.43-2.11-2.91-.08-4.3-.24-8.6-.23-12.91,0-3,1.61-4.09,4.55-3.44s5.83,1.12,8.75,1.67Z" transform="translate(-18.1 -14.15)"/><path class="u" d="M166.92,210c.06-2.81.07-5.62.19-8.42.15-3.31.78-6.54-4.53-6.33-3,.12-1.61-2.46-1.3-4.11,5.63.37,11.24-1.75,16.89-.17,1.17,2.74.22,4.28-2.72,4.08-3.41-.23-3.71,1.64-3.57,4.29.16,3.14.22,6.29.08,9.43-.17,3.74-1.74,4.9-4.91,2.18q-.41-.27-.33-.6C166.78,210.11,166.84,210,166.92,210Z" transform="translate(-18.1 -14.15)"/><path class="o" d="M110,229c-2.36-4.48-5.75-8.51-6.12-13.87,1.62.3,3.23.69,4.86.87,1.93.22,3-.46,3.24-2.7.81-8.65,2.93-17.2,1.93-26,4.31,2.89,1,7.21,2,10.73-.78,6.3-2.14,12.53-2,18.92-.79,3.56-.5,7.21-1,10.78-.28,1.93-.81,3.46-2.9,1.26Z" transform="translate(-18.1 -14.15)"/><path class="v" d="M240,188.8c8.81-8.57,15.88-18.76,25-27,1.43,1.57,1.7,3.56.18,4.85-9.29,7.92-15.31,18.93-25.06,26.4C240.06,191.62,240,190.21,240,188.8Z" transform="translate(-18.1 -14.15)"/><path class="w" d="M214.93,230l6.14-2.75,1.62-.08c-.38,3.09,5.07,7-2.12,9,2.83,1.3,6.17-2.72,6.87.83.51,2.63-3.64,2.42-5.74,3.45a3,3,0,0,1-3.63-.41C214.68,237.39,213.48,234.11,214.93,230Z" transform="translate(-18.1 -14.15)"/><path class="x" d="M138,228.09l9.94,3.08c.67,2.09.61,4-1.65,5.08-1.46-.76-2.76-1.11-3.59.9-.63,1.53-1.36,3.06-3.11,3.68-2.12,0-3.35-1-2.5-3.05,1.15-2.82,2.47-5.45-.14-8.16C136.9,229.53,137.67,228.62,138,228.09Z" transform="translate(-18.1 -14.15)"/><path class="y" d="M139.63,240.83q1.19-2.7,2.38-5.42c.45-1,.58-2.28,2.22-2.17,1.87.12,2,1.32,2,2.74,1.11,2.54.38,4.79-1,7L144,243Z" transform="translate(-18.1 -14.15)"/><path class="l" d="M110,229c1.53.65,1.88,0,2.08-1.5.5-3.53,1.21-7,1.84-10.54,0,3.66,0,7.32,0,11,0,1.45-.6,2.67-2.17,2.92C110.49,231,110.11,230.07,110,229Z" transform="translate(-18.1 -14.15)"/><path class="z" d="M98,168.91a27.38,27.38,0,0,1,8.34,10C102.18,176.73,98.32,174.3,98,168.91Z" transform="translate(-18.1 -14.15)"/><path class="aa" d="M142.26,249.14a4.64,4.64,0,0,1,4.16-.88c17.61,5,35.54,4.24,53.46,2.57,4.08-.38,8.07-1.83,12.06-2.91,1.76-.48,3.73-1.7,4.69.75s-1.31,3-3,3.51c-18.12,5.87-36.6,6-55.22,3.34-4.09-.58-8.1-1.73-12.13-2.64-2-.47-3.89-1.17-4-3.73Z" transform="translate(-18.1 -14.15)"/><path class="d" d="M166.92,210a1,1,0,0,1,.13.95c.49,4.31,2.43,5.18,6.67,3.23,1.81-.83,2.87-3.53,5.6-2.21,4.57,2.2,10.55,1.37,14.29,6.68-8.41,0-16.33.47-24.15-.24-2.88-.26-5.91,1.78-8.64-.46-1-.8-2.68-.91-2.62-2.64a2.37,2.37,0,0,1,2.27-2.27C162.93,212.64,163.41,208.09,166.92,210Z" transform="translate(-18.1 -14.15)"/><path class="ab" d="M182.74,235.05c2.51-2.33,3.61.11,4.54,1.61,1.64,2.66,2.74,2.75,4.4,0,.92-1.51,1.71-4.55,4.09-3.28,2.15,1.14,4.53,3.45,5.07,5.66,1,3.94-2.66,1.68-4.35,2.15-.39,1.57,1.85,3.82-.72,4.63-2.92.92-2.18-2.13-3.26-3.69-1.58,2.33-3.38,4.37-5.45.52-1.51,1.29.41,6.32-4.1,3.37C180.45,242.41,183,238.7,182.74,235.05Z" transform="translate(-18.1 -14.15)"/><path class="ac" d="M181.21,245.09c-2,2.83-4.87,2.31-7.65,1.88-1.37-.21-2.69-1-2.46-2.56.31-2.12,1.8-1.31,3-.86a4.25,4.25,0,0,0,4.07-.22c-2.21-2.37-8.6-1.29-6.29-7.15,1-2.49,3.33-2.39,5.49-2.36,2.62,0,4,1.23,3.52,4.05-1.21,1.56-2.38-.37-3.31.1,1.09.35,2.66.51,3.3,2.12h0C182.33,241.68,182.17,243.36,181.21,245.09Z" transform="translate(-18.1 -14.15)"/><path class="ad" d="M216.82,240c-2.18,5-4.52-.21-6.9.12-.94,1,.55,3.71-1.91,3.71s-1.95-2.3-2.33-3.77a34.9,34.9,0,0,1-.82-4.89c-.14-1.25-.82-2.91.87-3.47,2.3-.77,2,1.58,2.64,2.71,1.46-1.42,1-5.43,4.86-3.51C213.28,234.42,215,237.25,216.82,240Z" transform="translate(-18.1 -14.15)"/><path class="ae" d="M145.16,242.93c-.92-2.5.14-4.71,1-7q.9-2.4,1.79-4.81c2-.2,2.06,1.14,2.06,2.54,0,.95-.29,2,1.12,2.31a1.69,1.69,0,0,0,2.17-1.41c.36-1.37.9-2.66,2.68-1.85s.84,2.25.6,3.44c-.47,2.25-1.05,4.48-1.62,6.71-.26,1-.84,1.9-2,1.75s-1.47-1.19-1.55-2.21,1.35-2.63-1-3.1c-2-.42-2.54.93-3,2.42C147.16,243,146.19,243.05,145.16,242.93Z" transform="translate(-18.1 -14.15)"/><path class="af" d="M160.88,241.76c.21.46.24.63.34.72,1.41,1.19,4.85-.68,4.68,2.25-.14,2.59-2.91,1.19-4.51,1.23-2.47.07-4.8-.42-4.39-3.79.25-2.12.66-4.23,1-6.35.22-1.62.72-2.9,2.7-2.84s4.43-.37,6.09,1.28c.82.8.41,1.92-.95,2.05a35.2,35.2,0,0,1-3.58,0c-.25,2.39,3.79,1,3,3.47C164.5,241.9,162,240.11,160.88,241.76Z" transform="translate(-18.1 -14.15)"/><path class="ag" d="M216.82,240c-3.57-2.1-6.53-4.44-3.59-9.1l1.7-.95c.16,3.61,2.07,6.67,3.14,10Z" transform="translate(-18.1 -14.15)"/><path class="d" d="M165.84,202.26a2.27,2.27,0,0,1-2.35,2.57,2.13,2.13,0,0,1-2.3-2.1,2.19,2.19,0,0,1,2.32-2.56A2.24,2.24,0,0,1,165.84,202.26Z" transform="translate(-18.1 -14.15)"/><path class="ah" d="M181.21,245.09l-.3-5c1.86-1.23,0-3.81,1.83-5,.07,3.66.14,7.31.22,11Z" transform="translate(-18.1 -14.15)"/><path class="d" d="M199.28,215.21c2.57-1.88,3.85-.55,6,.74C202.66,217.48,201.17,216.75,199.28,215.21Z" transform="translate(-18.1 -14.15)"/><path class="d" d="M176.57,208.49c-2.43-.8-2.88-2-2.21-3.64a1.11,1.11,0,0,1,1.63-.54C177.35,205.41,176.27,206.88,176.57,208.49Z" transform="translate(-18.1 -14.15)"/><path class="ah" d="M180.92,240.09c-1.66-1.3-4.23-.52-5.81-2.42,2.14-2.11,3.91.78,5.82.2C180.93,238.61,180.92,239.35,180.92,240.09Z" transform="translate(-18.1 -14.15)"/><path class="ai" d="M194.37,201.31c-.12,3.33-1.16,6.08-5.06,6s-5-3-5.12-6.15,1.66-5.47,5.14-5.4S194.2,198.07,194.37,201.31Z" transform="translate(-18.1 -14.15)"/><path class="aj" d="M213.59,201.14c-.26,2-1.88,1.83-3.3,2.08-2.1.36-2.48-.88-2.57-2.54s.51-2.56,2.27-2.16C211.52,198.86,213.38,198.86,213.59,201.14Z" transform="translate(-18.1 -14.15)"/></svg>