<svg xmlns="http://www.w3.org/2000/svg" viewBox="0 0 250.02 308.14"><defs><style>.a{fill:#054046;}.b{fill:#f5f6f6;}.c{fill:#79b74e;}.d{fill:#79b74d;}.e{fill:#78b64c;}.f{fill:#66a943;}.g{fill:#64a743;}.h{fill:#6aa64b;}.i{fill:#68a44b;}.j{fill:#76af71;}.k{fill:#6aa97b;}.l{fill:#084619;}.m{fill:#669676;}.n{fill:#014047;}.o{fill:#f4f5f5;}.p{fill:#f3f4f5;}</style></defs><title>PLANT</title><path class="a" d="M270.09,204.35c-1.85,42.34-18.16,77.54-54.56,100.5-42.44,26.78-87,28.55-131.95,5.36C62.1,299.12,45.4,282.85,34.35,261.39c-16.8-32.62-18.83-66.33-5.79-100.85,10.05-26.59,25.35-50,42.85-72.15C89.66,65.28,110.69,45,133.75,26.81l.77-.65c13.39-10.91,7.9-10.19,21-.2A351.81,351.81,0,0,1,194.06,60a343.84,343.84,0,0,1,45.74,57.78c11.49,18.3,21.19,37.29,26.49,58.33A111.1,111.1,0,0,1,270.09,204.35Z" transform="translate(-20.08 -18.22)"/><path class="b" d="M192.94,194.68l6.45,11.43c4.41,4,5.23,9.62,6.1,14.94,3.54,21.5-1,40.69-17.21,56.16a58.37,58.37,0,0,1-33.15,16,60.72,60.72,0,0,0-20.13,0C103.07,289,82.23,261.62,82.7,232c.14-9.12,2-18.14,7.22-26,3.69-3.24,4.63-8.19,7.46-12,.37-4.2,3.18-7.24,5.48-10.32,5-6.74,10.13-13.43,15.38-20a12.7,12.7,0,0,1,4.49-3.8l9.44-9.93a8.58,8.58,0,0,1,3.36-5.58,3.33,3.33,0,0,1,2.46-1c6.13-5.53,7.09-5.56,13.26-.48a31,31,0,0,1,3.27,1.74,6.86,6.86,0,0,1,3.2,5.38l8.27,9.28c4.87,1.82,7,6.44,10,10.09,4.69,5.8,8.82,12,13.53,17.83A14.31,14.31,0,0,1,192.94,194.68Z" transform="translate(-20.08 -18.22)"/><path class="c" d="M204.86,203.72c16.32-11.87,29.92-26.13,38.84-44.81C268.08,203.3,253.39,275.77,188,302c-2.09-2.14-2.84-5.1-4.15-7.65-1.07-2.06,1.69-3.24,3.34-4.24a57.76,57.76,0,0,0,24.11-28.45c6.51-16.32,3.9-32.29-3.65-47.75C206.1,210.75,203.55,207.73,204.86,203.72Z" transform="translate(-20.08 -18.22)"/><path class="d" d="M100.88,301.15c-9.57-3.24-18.09-8.59-25.83-14.75-16.22-12.9-28.15-29.2-34.42-49.15-8.08-25.68-7.46-51.06,3.65-75.88a21.64,21.64,0,0,1,1.21-2.08c1.89.52,2.21,2.2,2.87,3.42,9.18,16.85,22.52,29.9,37.56,41.42-.55,4.21-3.15,7.57-4.71,11.36-2.15,5.22-4.29,10.39-5.43,16-4.8,23.65,5.68,42.83,23.7,56.11,5.38,4,5.66,3.75,3,10.19C102,298.89,103.62,301.12,100.88,301.15Z" transform="translate(-20.08 -18.22)"/><path class="e" d="M157.72,150,154,145.12c-2.11-3.14-.33-6.49-.35-9.7-.15-26.87-.1-53.74-.08-80.61,0-5.47,1-6.45,5.69-5.9a291.84,291.84,0,0,1,46.26,47.35c-2.51.56-3.74,2.19-4.62,4.3-8,19.46-22.22,33.6-39.34,45.17C159.9,146.82,157.83,147.54,157.72,150Z" transform="translate(-20.08 -18.22)"/><path class="d" d="M136,145c-1.28,1.65-2.57,3.29-3.85,4.93-1.72-3.48-5.27-4.93-8.12-7.07-14.6-10.94-26.94-23.71-34.44-40.65-.79-1.77-1.2-4-3-5-2.12-1.18-.82-2.06,0-3a337.11,337.11,0,0,1,47.2-47.23c1.57-.71,2.59-.15,3,1.43a13.08,13.08,0,0,1,.21,3.48q0,43.93,0,87.88C137,141.5,137.1,143.35,136,145Z" transform="translate(-20.08 -18.22)"/><path class="d" d="M171.06,157.29c19-12,32.89-28.74,44.1-48.49a291.08,291.08,0,0,1,21.11,33.13c.57,1,.77,2-.65,2.22-3,.47-3.17,3-4.15,5.07C223.13,166.48,211.6,181,195,191c-4.49-3-6.24-8.29-9.95-12.05-5-5-8.48-11.34-13-16.84C171,160.79,169.59,159.27,171.06,157.29Z" transform="translate(-20.08 -18.22)"/><path class="d" d="M95,191A102.24,102.24,0,0,1,57.5,146.83c-.14-.3-.22-.75-.45-.87-6.3-3.13-1.75-6.64-.14-9.72,4.93-9.44,11.65-17.76,17.94-27.6A138.44,138.44,0,0,0,119,158c1.37,2.13-.3,3.43-1.4,4.76-6.58,7.88-12.73,16.1-19.22,24C97.27,188.14,97.67,190.84,95,191Z" transform="translate(-20.08 -18.22)"/><path class="f" d="M204.86,203.72c1.94,7.05,6.18,13.13,8.31,20.14,5.63,18.58,4.11,35.9-8.16,51.58-5.11,6.54-10.5,12.77-18.25,16.42-2,.93-3.53,2.36-.41,4,2.69,1.46,2.13,3.8,1.65,6.11-10.05,5.24-21,6.76-32.08,8-2.46.28-3.37-.86-2.9-3.23,1-3.5.35-7.09.44-10.63,0-1.94.12-3.58,2.42-4,12.74-2.91,24.43-8,33.39-17.78,17.19-18.85,20.25-40.4,11.56-64-.52-1.4-1-2.82-1.45-4.23Z" transform="translate(-20.08 -18.22)"/><path class="g" d="M100.88,301.15c-.38-2.09-1.3-4.12,1.29-5.76,3-1.88,2-3.15-.72-4.88C88,282.09,78.39,270.35,74.63,254.87a54.9,54.9,0,0,1,4.56-38.18c2.12-4.24,3.09-9.13,6.73-12.56,1.65-.1,2.69,1.14,4,1.81-.38,4.71-3,8.72-4,13.25-7.63,33.31,11.69,64.31,44.9,71.89,1.13.26,2.22.65,3.33,1,.89.59,2.3.6,2.34,2.14.1,4.42.24,8.85,0,13.25-.21,3.24-2.67,1.89-4.47,1.64C120.93,309,110.7,305.87,100.88,301.15Z" transform="translate(-20.08 -18.22)"/><path class="h" d="M171.06,157.29c2.73,6.48,7.84,11.31,11.81,16.93S192.11,184.57,195,191c-1,1.06-2.31,1.93-2.06,3.68-8.42-12.24-17.09-24.28-27-35.42C168,159.38,169.37,157.94,171.06,157.29Z" transform="translate(-20.08 -18.22)"/><path class="i" d="M95,191c1.53-5.49,6.17-8.91,9.1-13.49,4.41-6.91,11-12.18,14.89-19.53l3.71,1.89c-8.58,11.29-17.63,22.22-25.36,34.14C97.13,192.56,95.85,192,95,191Z" transform="translate(-20.08 -18.22)"/><path class="j" d="M159.21,48.91C154.9,49.26,154,52,154,55.8q.06,44.65,0,89.32c-1.24-.34-2.38-.82-2.7-2.26,2-2.6,1.53-5.68,1.54-8.61q.08-42.85.05-85.71V43.78l1.22-.63Z" transform="translate(-20.08 -18.22)"/><path class="k" d="M136,145q0-46.42-.07-92.84c0-1.94,1.05-4.58-2.2-5.26,1-.61,1.46-3.74,3.34-.8.75,1.76.38,3.61.38,5.41q0,42.81.05,85.63c0,1.77-.6,3.65.55,5.32a.63.63,0,0,1-.08.9C137.69,144.31,136.83,144.62,136,145Z" transform="translate(-20.08 -18.22)"/><path class="l" d="M138.07,142.44c-1.86-.36-1-1.85-1-2.78q0-46.78,0-93.58c1.59,1.7.88,3.8.88,5.71Q138.07,97.12,138.07,142.44Z" transform="translate(-20.08 -18.22)"/><path class="m" d="M131.93,309.09c2.77.19,4.56-.68,4.06-3.87-.67-4.38,1.76-9.21-1.89-13.16l21.78.06c-2.44,1.72-1.7,4.3-1.93,6.68-.26,2.66,1,5.52-.93,8-.05-3.17-.25-6.33-.09-9.48s-.69-4.41-4.13-4.44C137,292.79,137,292.66,137,304.93,137,308.68,136.85,311.64,131.93,309.09Z" transform="translate(-20.08 -18.22)"/><path class="n" d="M192.11,233.73c-.8,18.94-9.59,33.25-26.77,41-18.2,8.18-36.27,6.73-51.7-6.95-19-16.84-21.17-39.55-7.06-62.51,10.32-16.78,23-31.72,35.58-46.74,1.94-2.32,3.29-2,5.12,0,13.82,15.33,26.72,31.37,37.42,49A51.12,51.12,0,0,1,192.11,233.73Z" transform="translate(-20.08 -18.22)"/><path class="o" d="M107.15,233.05c0-5.7,1.83-10.16,6.37-13.16,3-2,6-1.52,8.55,1s2.23,5.12,0,7.5-2.6,4.92-1.11,7.72c1.75,3.27,1.5,6.2-1.68,8.26s-6.05.61-8.51-1.68C107.89,240,107.48,236.32,107.15,233.05Z" transform="translate(-20.08 -18.22)"/><path class="p" d="M133.92,205.39a7.18,7.18,0,0,1-14.34-.55,6.69,6.69,0,0,1,7-6.77A7.62,7.62,0,0,1,133.92,205.39Z" transform="translate(-20.08 -18.22)"/></svg>